<svg xmlns="http://www.w3.org/2000/svg" xmlns:xlink="http://www.w3.org/1999/xlink" width="8.13" height="7.282" viewBox="0 0 8.13 7.282">
  <metadata><?xpacket begin="﻿" id="W5M0MpCehiHzreSzNTczkc9d"?>
<x:xmpmeta xmlns:x="adobe:ns:meta/" x:xmptk="Adobe XMP Core 5.6-c138 79.159824, 2016/09/14-01:09:01        ">
   <rdf:RDF xmlns:rdf="http://www.w3.org/1999/02/22-rdf-syntax-ns#">
      <rdf:Description rdf:about=""/>
   </rdf:RDF>
</x:xmpmeta>
                                                                                                    
                                                                                                    
                                                                                                    
                                                                                                    
                                                                                                    
                                                                                                    
                                                                                                    
                                                                                                    
                                                                                                    
                                                                                                    
                                                                                                    
                                                                                                    
                                                                                                    
                                                                                                    
                                                                                                    
                                                                                                    
                                                                                                    
                                                                                                    
                                                                                                    
                                                                                                    
                           
<?xpacket end="w"?></metadata>
<defs>
    <style>
      .cls-1 {
        fill: #4d4d4d;
        fill-rule: evenodd;
        opacity: 0.41;
        filter: url(#filter);
      }
    </style>
    <filter id="filter" x="1163.75" y="128.281" width="8.13" height="7.282" filterUnits="userSpaceOnUse">
      <feFlood result="flood"/>
      <feComposite result="composite" operator="in" in2="SourceGraphic"/>
      <feBlend result="blend" in2="SourceGraphic"/>
      <feGaussianBlur result="blur" stdDeviation="1" in="SourceAlpha"/>
      <feFlood result="flood-2" flood-opacity="0.75"/>
      <feComposite result="composite-2" operator="out" in2="blur"/>
      <feOffset result="offset" dx="0.707" dy="0.707"/>
      <feComposite result="composite-3" operator="in" in2="SourceAlpha"/>
      <feBlend result="blend-2" in2="blend"/>
    </filter>
  </defs>
  <path id="Icon" class="cls-1" d="M1166.54,128.282l-0.83.014v0.014h-0.11c-0.09.022-.2,0.036-0.28,0.058l-0.14.014V128.4c-0.04,0-.08.009-0.11,0.014v0.015h-0.05v0.014h-0.05v0.014h-0.05v0.015h-0.05v0.014l-0.09.015v0.014l-0.07.015v0.014h-0.05v0.014l-0.06.015v0.014h-0.03V128.6h-0.03v0.014h-0.04v0.014h-0.03v0.015h-0.03c-0.01.009-.01,0.019-0.02,0.029l-0.06.014c-0.01.01-.01,0.019-0.02,0.029h-0.03c0,0.01-.01.019-0.01,0.029h-0.04l-0.03.043h-0.03l-0.03.043h-0.04l-0.06.072a0.865,0.865,0,0,1-.1.072,0.724,0.724,0,0,0-.19.706v0.058h0.02c0,0.019.01,0.038,0.01,0.058h0.02v0.043h0.02v0.029l0.03,0.014v0.029l0.03,0.014v0.029l0.03,0.015V130a0.641,0.641,0,0,1,.08.058l0.15,0.144h0.03a0.051,0.051,0,0,0,.02.029h0.03l0.03,0.043h0.03c0.01,0.01.01,0.019,0.02,0.029h0.03a0.051,0.051,0,0,0,.02.029l0.06,0.014c0.01,0.01.01,0.019,0.02,0.029l0.09,0.029v0.014c0.03,0.01.07,0.019,0.1,0.029v0.015h0.05v0.014h0.03v0.014h0.05V130.5h0.03v0.014h0.05v0.014h0.05v0.015h0.04v0.014H1165v0.015h0.05v0.014h0.06V130.6h0.05v0.014h0.07v0.014h0.08c0.07,0.02.18,0.038,0.25,0.058h0.12a2.251,2.251,0,0,0,.57.029l0.5-.015,0.51-.086c0.18-.053.35-0.106,0.52-0.158v-0.015l0.09-.029V130.4h0.04v-0.015l0.06-.014c0.01-.01.01-0.019,0.02-0.029l0.06-.014c0.01-.01.01-0.019,0.02-0.029h0.03v-0.014a0.311,0.311,0,0,1,.05-0.015c0-.009.01-0.019,0.01-0.029h0.04l0.03-.043h0.03c0.03-.029.05-0.058,0.08-0.086a1.726,1.726,0,0,0,.14-0.116v-0.028c0.01,0,.03-0.01.04-0.015s0.01-.029.01-0.043h0.02v-0.029l0.03-.014v-0.029h0.02v-0.029h0.01v-0.043h0.02v-0.029h0.01v-0.058h0.02v-0.043h0.02a1.118,1.118,0,0,0-.04-0.375h-0.01l-0.03-.086h-0.02v-0.043h-0.02c0-.015-0.01-0.029-0.01-0.043l-0.03-.015v-0.029a0.188,0.188,0,0,1-.05-0.029v-0.028c-0.09-.072-0.17-0.144-0.26-0.217h-0.03c-0.01-.009-0.01-0.019-0.02-0.028h-0.03a0.051,0.051,0,0,0-.02-0.029h-0.03c0-.01-0.01-0.019-0.01-0.029h-0.04c0-.01-0.01-0.019-0.01-0.029h-0.03v-0.014h-0.04v-0.015h-0.03v-0.014h-0.03V128.6h-0.03v-0.015h-0.03V128.57c-0.04-.01-0.07-0.019-0.1-0.029v-0.014h-0.05v-0.015h-0.03V128.5l-0.08-.015v-0.014h-0.05v-0.015h-0.05V128.44h-0.05v-0.014c-0.05-.01-0.11-0.02-0.17-0.029v-0.015h-0.07v-0.014C1166.97,128.339,1166.76,128.31,1166.54,128.282Zm-2.5,2.176a0.31,0.31,0,0,0-.1-0.116h-0.01c-0.01-.019-0.01-0.038-0.02-0.057l-0.03-.015v-0.029l-0.03-.014V130.2h-0.02c-0.01-.019-0.01-0.038-0.02-0.058h-0.01V130.1h-0.02c0-.033-0.01-0.067-0.01-0.1h-0.02a1.879,1.879,0,0,0,.03.591h0.02c0,0.019.01,0.039,0.01,0.058h0.02c0.01,0.024.01,0.048,0.02,0.072l0.03,0.014v0.029h0.01c0.01,0.015.01,0.029,0.02,0.043l0.03,0.015v0.028c0.05,0.034.09,0.068,0.13,0.1a0.863,0.863,0,0,0,.1.1h0.03l0.03,0.044h0.03a0.173,0.173,0,0,0,.04.043h0.03v0.014h0.03a0.051,0.051,0,0,0,.02.029l0.06,0.014c0.01,0.01.01,0.02,0.02,0.029l0.09,0.029v0.014c0.03,0.01.07,0.02,0.1,0.029v0.015h0.05v0.014h0.03v0.014h0.05v0.015h0.03v0.014h0.05v0.015h0.05v0.014h0.04v0.015H1165v0.014h0.05v0.014h0.06v0.015h0.05v0.014h0.07v0.015h0.06V131.5h0.08v0.014h0.08v0.015h0.11v0.014h0.12v0.015h0.16c0.08,0.02.22-.009,0.32,0.014v0.014h0.11v-0.014c0.09-.023.24,0.007,0.32-0.014l0.27-.015c0.08-.02.19-0.037,0.26-0.057l0.13-.015v-0.014h0.03v-0.015h0.03c0.01-.009.01-0.019,0.02-0.028l0.09-.029a0.051,0.051,0,0,0,.02-0.029h0.03v-0.015h0.04v-0.014h0.04v-0.014h0.04v-0.015l0.09-.029V131.25h0.05v-0.014h0.03v-0.015h0.05v-0.014h0.03v-0.015h0.05v-0.014h0.05v-0.014l0.11-.015v-0.014h0.05V131.12h0.05c0-.009.01-0.019,0.01-0.028h0.04l0.03-.044h0.03a1.051,1.051,0,0,1,.1-0.1l0.12-.1v-0.028c0.01-.005.03-0.01,0.04-0.015a0.723,0.723,0,0,0,.16-0.432,1.121,1.121,0,0,0-.02-0.375,0.727,0.727,0,0,1-.32.476,1.051,1.051,0,0,1-.1.1h-0.03c0,0.009-.01.019-0.01,0.029h-0.04l-0.03.043h-0.03c-0.01.009-.01,0.019-0.02,0.029l-0.06.014c-0.01.01-.01,0.019-0.02,0.029l-0.09.029v0.014h-0.04v0.015h-0.03v0.014l-0.09.029v0.014h-0.05v0.014h-0.03v0.015h-0.05v0.014h-0.03v0.015l-0.1.014v0.015h-0.05v0.014h-0.05v0.014c-0.06.01-.11,0.02-0.17,0.029v0.015l-0.24.028v0.015h-0.1v0.014h-0.11v0.015h-0.15v0.014h-0.24v0.015a1.145,1.145,0,0,1-.34-0.015h-0.24v-0.014h-0.14v-0.015h-0.11v-0.014h-0.12v-0.015l-0.14-.014v-0.014h-0.08v-0.015h-0.05v-0.014h-0.06v-0.015h-0.07v-0.014h-0.04v-0.014h-0.05V130.9h-0.05V130.89h-0.05v-0.015h-0.03v-0.014h-0.05v-0.015h-0.03v-0.014h-0.05v-0.014a0.961,0.961,0,0,0-.1-0.029v-0.014h-0.03V130.76h-0.03v-0.014a0.961,0.961,0,0,0-.1-0.029c0-.01-0.01-0.019-0.01-0.029-0.02,0-.05-0.01-0.07-0.014,0-.01-0.01-0.02-0.01-0.029h-0.03a0.173,0.173,0,0,1-.04-0.043h-0.03l-0.03-.044h-0.03v-0.014A0.326,0.326,0,0,0,1164.04,130.458Zm2.42,1.959a0.592,0.592,0,0,1,.1-0.274v-0.028h0.01v-0.029h0.02c0.01-.019.01-0.039,0.02-0.058l0.03-.014a0.341,0.341,0,0,0,.05-0.1h-0.05v0.014h-0.23v0.015a1.636,1.636,0,0,1-.4-0.015h-0.22v-0.014h-0.15l-0.49-.087v-0.014l-0.12-.014v-0.015h-0.04v-0.014h-0.05v-0.015h-0.05V131.74l-0.1-.014v-0.015h-0.03V131.7l-0.08-.015v-0.014c-0.03-.01-0.06-0.019-0.1-0.029v-0.014h-0.03V131.61h-0.03V131.6c-0.03-.01-0.06-0.019-0.1-0.029,0-.01-0.01-0.019-0.01-0.029-0.02-.005-0.05-0.009-0.07-0.014,0-.01-0.01-0.019-0.01-0.029h-0.03a0.157,0.157,0,0,1-.04-0.043h-0.03c0-.01-0.01-0.02-0.01-0.029h-0.04l-0.09-.1h-0.04c0-.01-0.01-0.019-0.01-0.029h-0.02v-0.029l-0.09-.072v-0.028c-0.01,0-.03-0.01-0.04-0.015V131.12l-0.03-.014c0-.019-0.01-0.039-0.01-0.058h-0.02c-0.01-.019-0.01-0.038-0.02-0.057h-0.01v-0.044h-0.02c0-.033-0.01-0.067-0.01-0.1h-0.02a1.879,1.879,0,0,0,.03.591h0.02v0.029h0.01v0.043h0.02v0.029h0.02v0.029l0.03,0.014v0.029h0.01c0.01,0.015.01,0.029,0.02,0.043l0.03,0.015V131.7c0.06,0.043.11,0.086,0.16,0.129,0.02,0.024.05,0.048,0.07,0.072h0.03l0.03,0.044h0.03a0.173,0.173,0,0,0,.04.043l0.06,0.014a0.051,0.051,0,0,0,.02.029l0.06,0.015c0.01,0.009.01,0.019,0.02,0.028l0.06,0.015V132.1h0.03v0.015l0.1,0.028v0.015h0.05v0.014l0.06,0.015V132.2h0.05v0.014h0.03v0.015h0.05v0.014h0.05v0.015h0.05v0.014h0.04v0.014l0.63,0.116h0.16v0.014h0.24a0.9,0.9,0,0,0,.26.015v-0.015h0.14Zm0.74-.389v0.029a0.841,0.841,0,0,0-.29.432v0.26h0.02c0,0.038.01,0.076,0.01,0.115h0.02a0.139,0.139,0,0,0,.02.058h0.01l0.03,0.086c0.01,0,.03.01,0.04,0.014v0.029h0.01v0.029a0.428,0.428,0,0,0,.07.043v0.029l0.09,0.072c0.02,0.019.03,0.039,0.05,0.058h0.03c0.02,0.019.03,0.038,0.05,0.057s0.03,0.01.05,0.015c0,0.009.01,0.019,0.01,0.029h0.04c0,0.009.01,0.019,0.01,0.028a0.311,0.311,0,0,1,.05.015v0.014c0.02,0,.04.01,0.07,0.015,0,0.009.01,0.019,0.01,0.029l0.1,0.028v0.015h0.03v0.014c0.03,0.01.06,0.019,0.1,0.029v0.014h0.04V133.6h0.04v0.014h0.04v0.015h0.04v0.014l0.09,0.014v0.015h0.05v0.014h0.05V133.7h0.05v0.014h0.06v0.014l0.13,0.015v0.014l0.24,0.029V133.8l0.23,0.014v0.014h0.19v0.015h0.22l0.56-.015v-0.014h0.12l0.54-.1a1.757,1.757,0,0,0,1.32-.965,0.585,0.585,0,0,0-.03-0.3c-0.01-.043-0.03-0.086-0.04-0.13h-0.01v-0.029h-0.02v-0.028l-0.03-.015v-0.029h-0.02c0-.014-0.01-0.028-0.01-0.043l-0.03-.014v-0.029a2,2,0,0,1-.16-0.13,0.469,0.469,0,0,1-.07-0.072h-0.03l-0.03-.043h-0.04l-0.03-.043-0.06-.015c-0.01-.009-0.01-0.019-0.02-0.028l-0.06-.015c-0.01-.009-0.01-0.019-0.02-0.029l-0.06-.014v-0.014h-0.03v-0.015a0.961,0.961,0,0,1-.1-0.029v-0.014h-0.05v-0.015l-0.06-.014v-0.014c-0.03,0-.06-0.01-0.08-0.015V131.6l-0.45-.115-0.37-.044v-0.014l-0.27-.014h-0.18v-0.015h-0.21v0.015h-0.29v0.014h-0.16v0.014h-0.11v0.015h-0.1v0.014h-0.08v0.015h-0.08V131.5h-0.06v0.014h-0.07v0.015h-0.06v0.014h-0.06v0.015h-0.05v0.014h-0.05v0.014h-0.05V131.6H1168v0.014h-0.03v0.015h-0.05v0.014h-0.03v0.014h-0.05v0.015l-0.09.029v0.014h-0.04v0.015l-0.09.028c-0.01.01-.01,0.02-0.02,0.029l-0.06.015c-0.01.009-.01,0.019-0.02,0.028l-0.06.015a0.157,0.157,0,0,1-.04.043h-0.03l-0.03.043h-0.03v0.015A0.336,0.336,0,0,1,1167.2,132.028Zm-0.77,1.239v-0.345h0.02a0.284,0.284,0,0,0,0-.13,4.247,4.247,0,0,1-1.87-.317h-0.03V132.46h-0.03v-0.014h-0.03v-0.014h-0.03v-0.015h-0.04c0-.009-0.01-0.019-0.01-0.029-0.02,0-.05-0.009-0.07-0.014V132.36c-0.01-.005-0.03-0.01-0.04-0.015a0.048,0.048,0,0,1-.02-0.029h-0.03l-0.03-.043h-0.04a0.575,0.575,0,0,0-.08-0.086h-0.03v-0.015c-0.02-.009-0.03-0.019-0.05-0.029v-0.028l-0.09-.072v-0.029c-0.01-.005-0.03-0.01-0.04-0.015V131.97l-0.03-.014c0-.019-0.01-0.038-0.01-0.058h-0.02c-0.01-.019-0.01-0.038-0.02-0.057h-0.01V131.8h-0.02c0-.034-0.01-0.068-0.01-0.1h-0.02v0.49h0.02v0.043h0.01v0.057h0.02v0.044h0.01c0.01,0.019.01,0.038,0.02,0.057h0.02v0.029l0.03,0.015c0,0.019.01,0.038,0.01,0.057s0.03,0.01.04,0.015v0.029l0.09,0.071v0.029h0.02c0,0.01.01,0.02,0.01,0.029h0.04a0.633,0.633,0,0,0,.08.087h0.03l0.03,0.043h0.03a0.157,0.157,0,0,0,.04.043h0.03c0,0.01.01,0.019,0.01,0.029,0.02,0,.05.01,0.07,0.014,0,0.01.01,0.02,0.01,0.029,0.04,0.01.07,0.019,0.1,0.029v0.014h0.03v0.015h0.03v0.014c0.04,0.01.07,0.019,0.1,0.029v0.014h0.05v0.015h0.03v0.014h0.05v0.015h0.03v0.014h0.05v0.014h0.05v0.015h0.05v0.014h0.04v0.015c0.05,0,.09.009,0.13,0.014v0.015h0.05v0.014l0.16,0.014v0.015l0.18,0.014v0.015l0.25,0.014v0.014h0.24v0.015A1.6,1.6,0,0,0,1166.43,133.267Zm0.02,0.375a4.418,4.418,0,0,1-1.69-.245h-0.05v-0.014h-0.03v-0.015h-0.05v-0.014l-0.09-.029v-0.014c-0.03,0-.05-0.01-0.07-0.015,0-.009-0.01-0.019-0.01-0.029a0.572,0.572,0,0,1-.07-0.014c0-.01-0.01-0.019-0.01-0.029h-0.04V133.21h-0.03l-0.03-.043h-0.03l-0.03-.044h-0.04l-0.06-.072h-0.03c-0.01-.009-0.01-0.019-0.02-0.029l-0.06-.043V132.95a0.553,0.553,0,0,1-.08-0.057v-0.029c-0.01,0-.03-0.01-0.04-0.014v-0.029l-0.03-.015c0-.019-0.01-0.038-0.01-0.057h-0.02c-0.01-.02-0.01-0.039-0.02-0.058h-0.01v-0.043h-0.02c0-.034-0.01-0.067-0.01-0.1h-0.02v0.49a0.879,0.879,0,0,0,.34.475l0.09,0.1h0.04l0.03,0.043h0.03a0.048,0.048,0,0,0,.02.029h0.03c0,0.01.01,0.019,0.01,0.029,0.02,0,.05.01,0.07,0.014a4,4,0,0,0,2,.4,1.054,1.054,0,0,0,.02-0.36A0.146,0.146,0,0,0,1166.45,133.642Zm5.39-.533h-0.02c0,0.033-.01.067-0.01,0.1h-0.02v0.043h-0.02l-0.03.086h-0.01c-0.01.02-.01,0.039-0.02,0.058l-0.03.014v0.029a0.427,0.427,0,0,1-.07.044v0.028c-0.01.01-.03,0.02-0.04,0.029l-0.12.115h-0.03a0.238,0.238,0,0,1-.05.058h-0.03a0.051,0.051,0,0,1-.02.029h-0.03l-0.03.043-0.06.015c-0.01.009-.01,0.019-0.02,0.028h-0.03v0.015h-0.03v0.014h-0.04v0.015h-0.03v0.014h-0.03V133.9h-0.03v0.015c-0.03.009-.07,0.019-0.1,0.029v0.014h-0.05v0.014h-0.03v0.015c-0.03,0-.05.01-0.08,0.014v0.015h-0.05v0.014h-0.05v0.015h-0.04v0.014l-0.12.014v0.015l-0.12.014v0.015h-0.08v0.014h-0.07v0.014h-0.08v0.015h-0.11v0.014h-0.11v0.015l-0.6.014a3.59,3.59,0,0,1-1.31-.216h-0.05v-0.015h-0.03v-0.014h-0.05v-0.014c-0.03-.01-0.07-0.02-0.1-0.029V133.9h-0.03v-0.014h-0.03v-0.014h-0.03v-0.015h-0.04v-0.014h-0.03v-0.015h-0.03c-0.01-.009-0.01-0.019-0.02-0.028l-0.06-.015c-0.01-.009-0.01-0.019-0.02-0.029h-0.03a0.054,0.054,0,0,0-.02-0.029c-0.01,0-.03-0.009-0.04-0.014a0.157,0.157,0,0,0-.04-0.043h-0.03a1.067,1.067,0,0,0-.11-0.115c-0.03-.02-0.05-0.039-0.08-0.058v-0.029c-0.02-.009-0.03-0.019-0.05-0.029v-0.029l-0.03-.014v-0.029l-0.03-.014v-0.029h-0.02v-0.043h-0.01a0.134,0.134,0,0,1-.02-0.058h-0.02c0-.033-0.01-0.067-0.01-0.1h-0.02a1.878,1.878,0,0,0,.03.591h0.02a0.134,0.134,0,0,0,.02.058h0.01c0.01,0.024.01,0.048,0.02,0.072l0.03,0.014v0.029l0.03,0.014v0.029a0.369,0.369,0,0,0,.07.043V134a1.056,1.056,0,0,0,.11.087,0.255,0.255,0,0,0,.05.057h0.03a0.238,0.238,0,0,0,.05.058h0.03c0,0.01.01,0.019,0.01,0.029h0.04c0,0.009.01,0.019,0.01,0.029a0.242,0.242,0,0,1,.05.014v0.014c0.02,0,.04.01,0.07,0.015,0,0.01.01,0.019,0.01,0.029,0.03,0.009.07,0.019,0.1,0.029v0.014h0.03v0.014a0.961,0.961,0,0,0,.1.029v0.015l0.08,0.014v0.014h0.03v0.015l0.09,0.014v0.015h0.05v0.014h0.05v0.014h0.05v0.015h0.05v0.014l0.13,0.015v0.014h0.04v0.015h0.08c0.08,0.021.19,0.036,0.28,0.057h0.11v0.015h0.19v0.014h0.24l0.58-.014v-0.015h0.11c0.08-.021.2-0.036,0.28-0.057h0.08l0.57-.173V134.42a0.961,0.961,0,0,0,.1-0.029v-0.014h0.03v-0.014c0.03-.01.07-0.02,0.1-0.029,0-.01.01-0.019,0.01-0.029,0.03,0,.05-0.01.07-0.015v-0.014a0.242,0.242,0,0,1,.05-0.014c0-.01.01-0.02,0.01-0.029h0.03a0.173,0.173,0,0,0,.04-0.043h0.03c0.02-.02.03-0.039,0.05-0.058h0.03a0.948,0.948,0,0,1,.1-0.1l0.03-.014v-0.029l0.06-.043v-0.029l0.03-.015v-0.028c0.01,0,.03-0.01.04-0.015s0.01-.038.01-0.057h0.02c0-.02.01-0.039,0.01-0.058h0.02A1.6,1.6,0,0,0,1171.84,133.109Zm0,0.85h-0.02c0,0.034-.01.067-0.01,0.1h-0.02V134.1h-0.02l-0.03.087h-0.01c-0.01.019-.01,0.038-0.02,0.057l-0.03.015v0.028l-0.24.231h-0.03a0.157,0.157,0,0,0-.04.043h-0.03l-0.03.044h-0.03c-0.01.009-.01,0.019-0.02,0.028l-0.06.015c-0.01.009-.01,0.019-0.02,0.029h-0.03v0.014h-0.03v0.014h-0.04v0.015h-0.03v0.014h-0.03v0.015h-0.03v0.014c-0.03.01-.07,0.019-0.1,0.029v0.014l-0.08.015v0.014h-0.03v0.014l-0.1.015v0.014h-0.05V134.9h-0.04v0.014h-0.05v0.015l-0.13.014v0.014l-0.13.015v0.014h-0.08V135h-0.08v0.014h-0.11v0.014h-0.11v0.015l-0.61.014a3.651,3.651,0,0,1-1.18-.173l-0.14-.029v-0.014h-0.03v-0.014h-0.05v-0.015l-0.06-.014V134.78h-0.05v-0.014a0.572,0.572,0,0,0-.07-0.014v-0.015l-0.06-.014c-0.01-.01-0.01-0.019-0.02-0.029l-0.06-.014c-0.01-.01-0.01-0.02-0.02-0.029h-0.03v-0.015h-0.03c-0.01-.009-0.01-0.019-0.02-0.028h-0.03l-0.03-.044h-0.03a0.157,0.157,0,0,0-.04-0.043h-0.03a0.575,0.575,0,0,0-.08-0.086,1.3,1.3,0,0,0-.13-0.1v-0.029l-0.03-.015v-0.028l-0.03-.015v-0.029l-0.03-.014v-0.029h-0.02v-0.043h-0.01a0.13,0.13,0,0,1-.02-0.058h-0.02c0-.033-0.01-0.067-0.01-0.1h-0.02a1.878,1.878,0,0,0,.03.591h0.02a0.134,0.134,0,0,0,.02.058h0.01c0.01,0.024.01,0.048,0.02,0.072l0.03,0.014v0.029l0.03,0.015v0.028c0.02,0.01.03,0.02,0.05,0.029v0.029c0.04,0.034.09,0.067,0.13,0.1l0.06,0.072h0.03a0.157,0.157,0,0,1,.04.043h0.03l0.03,0.043c0.02,0,.04.01,0.07,0.015,0,0.009.01,0.019,0.01,0.029,0.02,0,.03.009,0.05,0.014v0.015h0.03v0.014h0.03V135.2h0.04v0.015h0.03v0.014h0.03v0.015h0.03v0.014c0.03,0.01.07,0.019,0.1,0.029V135.3h0.05v0.015h0.03v0.014h0.05v0.014h0.03v0.015h0.05v0.014h0.04v0.015h0.05V135.4l0.12,0.015v0.014l0.59,0.1h0.18a2.916,2.916,0,0,0,.83-0.015h0.11c0.11-.028.25-0.041,0.36-0.072h0.06l0.48-.144v-0.014c0.03-.01.07-0.019,0.1-0.029v-0.014h0.03v-0.015h0.03v-0.014h0.03V135.2h0.04v-0.014h0.03c0-.01.01-0.019,0.01-0.029,0.03,0,.05-0.01.07-0.014,0-.01.01-0.02,0.01-0.029h0.04c0-.01.01-0.019,0.01-0.029h0.03a0.157,0.157,0,0,0,.04-0.043h0.03l0.03-.043h0.03a0.282,0.282,0,0,0,.05-0.058,1.056,1.056,0,0,0,.11-0.087v-0.028a0.427,0.427,0,0,0,.07-0.044v-0.028h0.01v-0.029c0.01-.005.03-0.01,0.04-0.015l0.03-.086h0.01v-0.029h0.02A1.6,1.6,0,0,0,1171.84,133.959Z" transform="translate(-1163.75 -128.281)"/>
</svg>
