<svg xmlns="http://www.w3.org/2000/svg" width="16.219" height="16.219" viewBox="0 0 16.219 16.219">
  <metadata><?xpacket begin="﻿" id="W5M0MpCehiHzreSzNTczkc9d"?>
<x:xmpmeta xmlns:x="adobe:ns:meta/" x:xmptk="Adobe XMP Core 5.6-c138 79.159824, 2016/09/14-01:09:01        ">
   <rdf:RDF xmlns:rdf="http://www.w3.org/1999/02/22-rdf-syntax-ns#">
      <rdf:Description rdf:about=""/>
   </rdf:RDF>
</x:xmpmeta>
                                                                                                    
                                                                                                    
                                                                                                    
                                                                                                    
                                                                                                    
                                                                                                    
                                                                                                    
                                                                                                    
                                                                                                    
                                                                                                    
                                                                                                    
                                                                                                    
                                                                                                    
                                                                                                    
                                                                                                    
                                                                                                    
                                                                                                    
                                                                                                    
                                                                                                    
                                                                                                    
                           
<?xpacket end="w"?></metadata>
<defs>
    <style>
      .cls-1 {
        fill: #8c8c8c;
        fill-rule: evenodd;
      }
    </style>
  </defs>
  <path id="_Icon" data-name="% Icon" class="cls-1" d="M797.678,635.131h0.7v0.177a6.28,6.28,0,0,1,3.679,4.251,0.314,0.314,0,0,0-.175.177l-6.308,1.771V641.33h0.175q0.088-.531.175-1.063H796.1v-0.531h0.175v-0.531A26.143,26.143,0,0,0,797.678,635.131Zm-1.928,1.417a3.642,3.642,0,0,1-.526,1.594v0.531h-0.175v0.532h-0.175v0.531H794.7v0.531h-0.175v0.709a8.415,8.415,0,0,0-.877,2.657l7.009-2.126,0.351,2.657h-0.175v1.24h-0.176v0.709h-0.175v0.531h-0.175c-0.058.236-.117,0.473-0.175,0.709h-0.175v0.354l-0.351.177v0.355l-0.526.354q-0.087.266-.175,0.531l-0.525.177q-0.264.354-.526,0.709H797.5c-0.058.118-.116,0.236-0.175,0.354h-0.35v0.177l-0.7.177V650.9a12.286,12.286,0,0,1-4.381.354v-0.177h-0.7V650.9h-0.526v-0.178l-1.051-.354v-0.177h-0.35l-0.351-.531h-0.35l-0.175-.355-0.7-.531v-0.354l-0.526-.355v-0.354l-0.351-.177v-0.354h-0.175v-0.355h-0.175V646.29h-0.175v-0.531h-0.175v-0.886h-0.176a6.432,6.432,0,0,1,.526-3.543q0.263-.8.526-1.594l0.35-.177v-0.354l0.876-.709q0.351-.442.7-0.886h0.351l0.175-.354c0.724-.462,3.727-1.533,5.257-1.063v0.178Z" transform="translate(-785.844 -635.125)"/>
</svg>
