<svg xmlns="http://www.w3.org/2000/svg" width="20.25" height="20.25" viewBox="0 0 20.25 20.25">
  <metadata><?xpacket begin="﻿" id="W5M0MpCehiHzreSzNTczkc9d"?>
<x:xmpmeta xmlns:x="adobe:ns:meta/" x:xmptk="Adobe XMP Core 5.6-c138 79.159824, 2016/09/14-01:09:01        ">
   <rdf:RDF xmlns:rdf="http://www.w3.org/1999/02/22-rdf-syntax-ns#">
      <rdf:Description rdf:about=""/>
   </rdf:RDF>
</x:xmpmeta>
                                                                                                    
                                                                                                    
                                                                                                    
                                                                                                    
                                                                                                    
                                                                                                    
                                                                                                    
                                                                                                    
                                                                                                    
                                                                                                    
                                                                                                    
                                                                                                    
                                                                                                    
                                                                                                    
                                                                                                    
                                                                                                    
                                                                                                    
                                                                                                    
                                                                                                    
                                                                                                    
                           
<?xpacket end="w"?></metadata>
<defs>
    <style>
      .cls-1 {
        fill: #b9b9b9;
        fill-rule: evenodd;
      }
    </style>
  </defs>
  <path id="Globe" class="cls-1" d="M989.352,39.725a9.635,9.635,0,0,1,3.924.635l0.165,0.028v0.028l0.139,0.028v0.028h0.055V40.5h0.083v0.028h0.055v0.028l0.138,0.028v0.028h0.055v0.028l0.166,0.055v0.028h0.083v0.028l0.111,0.028V40.8l0.11,0.028c0.009,0.018.018,0.037,0.028,0.055h0.055v0.028h0.055V40.94h0.055v0.028h0.056V41l0.11,0.028c0.01,0.018.019,0.037,0.028,0.055l0.11,0.028c0.01,0.018.019,0.037,0.028,0.055l0.111,0.028,0.027,0.055,0.111,0.028,0.027,0.055h0.056l0.027,0.055h0.055v0.028l0.083,0.028c0.01,0.018.019,0.037,0.028,0.055h0.055c0.01,0.018.019,0.037,0.028,0.055h0.055c0.019,0.028.037,0.055,0.055,0.083h0.056l0.055,0.083h0.055L995.9,41.8h0.056l0.055,0.083h0.055l0.083,0.11H996.2l0.111,0.138h0.055l0.166,0.193h0.055l0.3,0.331,0.415,0.386v0.055l0.221,0.193v0.055l0.11,0.083V43.48l0.111,0.083v0.055l0.11,0.083v0.055l0.083,0.055v0.055l0.083,0.055v0.055L998.083,44V44.06l0.056,0.028v0.055l0.082,0.055c0.01,0.037.019,0.074,0.028,0.11h0.028l0.027,0.083,0.056,0.028v0.055l0.055,0.028c0.009,0.037.018,0.074,0.028,0.11L998.5,44.64l0.027,0.111,0.056,0.028c0.018,0.055.037,0.11,0.055,0.166l0.055,0.028,0.553,1.187,0.027,0.166H999.3v0.055h0.028q0.165,0.552.331,1.1v0.138h0.028v0.111h0.028V47.87h0.027v0.138h0.028v0.166H999.8v0.166h0.028V48.56h0.028v0.221h0.027v0.331a4.7,4.7,0,0,1,.028,1.049v0.414h-0.028v0.3h-0.027v0.248h-0.028v0.193H999.8v0.166h-0.027v0.166h-0.028l-0.027.276h-0.028v0.138h-0.028v0.11h-0.027v0.11H999.6V52.4h-0.028v0.11h-0.027c-0.009.064-.019,0.129-0.028,0.193h-0.028v0.083h-0.027v0.083h-0.028V52.95H999.41v0.11h-0.028v0.055h-0.028V53.2h-0.027c-0.019.083-.037,0.166-0.056,0.248h-0.027V53.5h-0.028v0.083h-0.027V53.64h-0.028v0.083h-0.028v0.055h-0.027c-0.01.046-.019,0.092-0.028,0.138H999.05c-0.018.055-.036,0.111-0.055,0.166h-0.027v0.055H998.94V54.22h-0.028c-0.018.055-.037,0.11-0.055,0.166h-0.028l-0.027.11-0.056.028v0.055h-0.027v0.055h-0.028v0.055h-0.027v0.055h-0.028V54.8l-0.055.028-0.056.166-0.055.028v0.055l-0.055.028c-0.009.037-.019,0.074-0.028,0.11l-0.055.028V55.3l-0.055.028V55.38l-0.056.028v0.055h-0.027l-0.028.083-0.055.028v0.055l-0.055.028v0.055l-0.083.055v0.055l-0.083.055v0.055l-0.083.055v0.055l-0.11.083V56.18l-0.111.083v0.055l-0.166.138v0.055l-0.055.028v0.028l-0.249.221v0.055l-0.083.055-0.193.221h-0.055l-0.3.331h-0.055l-0.139.166h-0.055l-0.083.11h-0.055l-0.083.11h-0.055l-0.056.083h-0.055L995.79,58h-0.055l-0.056.083h-0.055l-0.027.055-0.083.028V58.2h-0.056l-0.027.055h-0.056l-0.027.055h-0.055c-0.01.018-.019,0.037-0.028,0.055l-0.083.028v0.028l-0.11.028c-0.01.018-.019,0.037-0.028,0.055h-0.055v0.028h-0.056l-0.027.055-0.166.055c-0.009.018-.018,0.037-0.028,0.055h-0.055V58.72H994.6v0.028h-0.055v0.028h-0.056V58.8h-0.055v0.028h-0.055v0.027h-0.055v0.028H994.27v0.028h-0.055v0.028H994.16v0.028H994.1V59l-0.11.028v0.028h-0.055v0.028h-0.083v0.028l-0.111.028v0.028h-0.083V59.19h-0.055v0.027l-0.138.028v0.028h-0.083V59.3h-0.055v0.028l-0.249.055v0.028H993v0.028h-0.083v0.028h-0.083v0.028h-0.082v0.028l-0.194.028v0.027l-0.193.028v0.028h-0.111v0.028l-0.359.055v0.028h-0.138c-0.143.044-.354,0.068-0.5,0.111h-0.194V59.88h-0.249v0.028h-0.359v0.028H990.07a4.152,4.152,0,0,1-.939-0.028H988.8l-1.077-.166V59.714l-0.249-.028V59.659h-0.11V59.631h-0.111V59.6h-0.11V59.576l-0.194-.027V59.521h-0.083V59.493h-0.083V59.466H986.7V59.438h-0.082V59.411h-0.083V59.383l-0.249-.055V59.3H986.23V59.272l-0.166-.028V59.217h-0.055V59.19h-0.083V59.162l-0.111-.028V59.107h-0.083V59.079l-0.165-.055V59h-0.056V58.969h-0.083V58.941l-0.165-.055V58.858h-0.056V58.831L985.1,58.8l-0.028-.055h-0.055V58.72h-0.055V58.693H984.9V58.665h-0.055l-0.027-.055-0.166-.055-0.028-.055-0.11-.028V58.444l-0.083-.028-0.028-.055-0.11-.028V58.306l-0.083-.028c-0.01-.018-0.019-0.037-0.028-0.055H984.13c-0.019-.028-0.037-0.055-0.055-0.083h-0.056l-0.027-.055h-0.056l-0.027-.055h-0.056c-0.018-.028-0.036-0.055-0.055-0.083h-0.055l-0.055-.083h-0.056l-0.083-.111h-0.055l-0.083-.11h-0.055l-0.138-.166h-0.055L983,57.285h-0.028l-0.027-.055h-0.056l-0.276-.3-0.221-.193V56.677l-0.249-.221V56.4L982,56.291V56.236l-0.11-.083V56.1l-0.111-.083V55.959L981.7,55.9V55.849l-0.083-.055V55.739l-0.055-.028V55.656l-0.083-.055V55.545l-0.055-.028V55.462l-0.055-.028V55.38l-0.056-.028V55.3l-0.055-.028-0.027-.11H981.2c-0.009-.028-0.018-0.055-0.028-0.083l-0.055-.028V54.993H981.09V54.938l-0.055-.028V54.855h-0.028V54.8H980.98V54.745h-0.028V54.689l-0.055-.028V54.607h-0.028V54.551h-0.027V54.5h-0.028V54.441h-0.028V54.386h-0.027V54.33h-0.028V54.275H980.7V54.22h-0.028c-0.019-.055-0.037-0.111-0.055-0.166h-0.028V53.972h-0.028V53.916h-0.027c-0.009-.037-0.019-0.074-0.028-0.111h-0.027V53.723h-0.028V53.668h-0.028V53.585H980.4V53.53h-0.028c-0.009-.055-0.018-0.111-0.028-0.166h-0.027V53.309h-0.028c-0.009-.055-0.018-0.11-0.028-0.166h-0.027V53.06h-0.028V52.978h-0.027V52.895h-0.028V52.812h-0.028V52.729H980.1l-0.111-.525c-0.066-.2-0.1-0.459-0.166-0.663V51.376h-0.027V51.183h-0.028V50.935h-0.028V50.658h-0.027v-0.5h-0.028a2.087,2.087,0,0,1,.028-0.663V49.03h0.027v-0.3c0.05-.171.062-0.414,0.111-0.58V47.98h0.028V47.842H979.9V47.7h0.028v-0.11h0.028V47.456h0.027V47.345h0.028v-0.11l0.387-1.16h0.027V46.02h0.028V45.937h0.028V45.882h0.027c0.009-.046.019-0.092,0.028-0.138h0.027l0.056-.166h0.027V45.523h0.028V45.44H980.7c0.018-.055.036-0.111,0.055-0.166h0.027c0.01-.037.019-0.074,0.028-0.111l0.055-.028V45.081H980.9V45.026h0.028V44.971h0.027V44.916h0.028V44.861l0.055-.028V44.778h0.028V44.723l0.055-.028c0.009-.037.018-0.074,0.028-0.11l0.055-.028c0.009-.037.018-0.074,0.028-0.11l0.055-.028V44.364l0.055-.028V44.281h0.028l0.027-.083,0.056-.028V44.115l0.055-.028V44.032l0.083-.055V43.922l0.055-.028V43.839l0.083-.055V43.729l0.083-.055V43.618l0.11-.083V43.48l0.139-.111V43.314l0.165-.138V43.121l0.442-.414,0.415-.442h0.055l0.138-.166h0.056l0.11-.138h0.055l0.083-.11h0.055l0.056-.083h0.055l0.055-.083h0.055l0.056-.083h0.055c0.009-.018.018-0.037,0.028-0.055h0.055c0.009-.018.018-0.037,0.028-0.055h0.055l0.027-.055h0.056l0.027-.055H984.3l0.027-.055h0.055c0.01-.018.019-0.037,0.028-0.055h0.055c0.01-.019.019-0.037,0.028-0.055h0.055V41.189H984.6l0.027-.055,0.166-.055c0.009-.018.018-0.037,0.028-0.055h0.055V41h0.055V40.968h0.055V40.94h0.056l0.027-.055,0.166-.055V40.8h0.055V40.774h0.056V40.747l0.165-.055V40.664h0.083V40.636h0.055V40.609l0.111-.028V40.554h0.083V40.526l0.11-.028V40.471h0.083V40.443h0.056V40.415l0.165-.028V40.36h0.056V40.333l0.248-.055V40.25h0.083V40.222h0.083V40.195h0.083V40.167h0.083V40.139l0.193-.028V40.084l0.221-.028V40.029l0.332-.055V39.946h0.138c0.132-.041.334-0.071,0.47-0.11h0.193V39.808h0.221V39.781h0.277V39.753A1.387,1.387,0,0,0,989.352,39.725Zm-1.188,1.712c-0.066-.017-0.133-0.072-0.194-0.083a1.47,1.47,0,0,0-.221.055l-0.442.028a0.325,0.325,0,0,1-.055-0.11,0.259,0.259,0,0,0,.055-0.111l0.277-.248V40.94H987.5v0.028L987.307,41v0.028H987.2V41.05l-0.138.028c-0.01.018-.019,0.037-0.028,0.055l-0.249.028v0.028l-0.165.028v0.028l-0.277.083a0.646,0.646,0,0,1-.083.166l-0.359.028v0.028l-0.11.028V41.6h-0.056V41.63h-0.055v0.028h-0.055v0.028h-0.055v0.028h-0.056v0.028h-0.055v0.028H985.4l-0.028.055h-0.055v0.028l-0.111.028-0.027.055-0.111.028-0.027.055-0.111.028c-0.009.018-.018,0.037-0.028,0.055h-0.055l-0.027.055h-0.056l-0.027.055h-0.056v0.028l-0.082.028c-0.01.018-.019,0.037-0.028,0.055h-0.055c-0.01.018-.019,0.037-0.028,0.055h-0.055l-0.056.083h-0.055l-0.055.083h-0.055l-0.056.083H984.1v0.028a0.4,0.4,0,0,1-.166.11v0.055l0.111,0.028V42.817a0.391,0.391,0,0,0,.221-0.166l0.221-.193,0.083-.11h0.055l0.028-.055h0.055c0.009-.018.018-0.037,0.028-0.055l0.193-.028,0.028,0.083h0.027v0.083h0.028v0.166s0.018,0,.028.055l0.138,0.083V42.652a0.11,0.11,0,0,0,.11-0.111,0.864,0.864,0,0,0,.056-0.331h0.027V42.1H985.4V42.017h0.027c0.01-.028.019-0.055,0.028-0.083a1.23,1.23,0,0,1,.442-0.166V41.8l0.166,0.028c0.009,0.018.018,0.037,0.028,0.055h0.055l0.027,0.055h0.056l0.055,0.083h0.055l0.028,0.055h0.055l0.028,0.055h0.055c0.009,0.018.018,0.037,0.028,0.055l0.11,0.028v0.028l0.111,0.028v0.028h0.083v0.028h0.055v0.028h0.055v0.028H987V42.4h0.056v0.028h0.055l0.055,0.083h0.055l0.166,0.248v0.11h0.028l0.027,0.331h-0.027v0.083H987.39v0.276a0.364,0.364,0,0,0-.11.083,1.267,1.267,0,0,1-1-.166,2.835,2.835,0,0,1-.083-0.773,0.423,0.423,0,0,0-.249-0.055v0.028H985.9l-0.055.083-0.083.028v0.055l-0.083.055v0.055h-0.028a1.359,1.359,0,0,0,0,.525,0.28,0.28,0,0,1-.193.083v0.028a1.871,1.871,0,0,1-.525-0.166v0.028a0.24,0.24,0,0,0-.166.166h-0.027v0.055l-0.056.028v0.055h-0.027v0.055h-0.028v0.055H984.6v0.055h-0.028v0.055h-0.028v0.055l-0.055.028v0.055h-0.028v0.166c0.071,0.045.1,0.147,0.166,0.193h0.055l0.111,0.138h0.055l0.194,0.221,0.082,0.055v0.055l0.111,0.083v0.055a0.741,0.741,0,0,0,.138.055v0.028c0.011,0,.108-0.026.111-0.028V45.109l0.055-.028V45.026l0.083-.055,0.027-.11h0.028c0.019-.055.037-0.11,0.055-0.166h0.028l0.111-.469,0.027-.469h0.028l0.027-.138h0.139c0.054,0.084.029,0.014,0.082,0.055,0.01,0.018.019,0.037,0.028,0.055h0.028v0.055l0.165,0.138v0.055l0.3,0.276a1.087,1.087,0,0,0,.332-0.083L987.2,44.2c0.028,0.054.087,0.113,0.11,0.166v0.083h0.028v0.083h0.028l0.027,0.11h0.028v0.055l0.055,0.028v0.055l0.276,0.248v0.055l0.056,0.028,0.276,0.718c-0.009.092-.018,0.184-0.028,0.276a0.682,0.682,0,0,1-.525-0.083l-0.027-.055-0.056-.028V45.882l-0.055-.028V45.8a0.333,0.333,0,0,0-.248-0.055v0.028L987,45.8l-0.027.055h-0.055c-0.01.018-.019,0.037-0.028,0.055l-0.111.083c-0.018.055-.037,0.111-0.055,0.166H986.7a0.332,0.332,0,0,0,.028.193c0.173,0.03.415,0.005,0.553,0.028a0.427,0.427,0,0,1,.027.166,1.57,1.57,0,0,1-.193.11h-0.138v0.028l-0.829.028a1.75,1.75,0,0,1-.194.083,1.729,1.729,0,0,0-.138.248v0.221h-0.027v0.248H985.76v0.166h-0.028l-0.027.111h-0.028v0.055l-0.11.083v0.028h-0.056l-0.027.055h-0.056v0.028h-0.055v0.028h-0.055v0.028h-0.055v0.028h-0.056v0.028h-0.055v0.028l-0.11.028c-0.01.018-.019,0.037-0.028,0.055h-0.055l-0.028.055H984.9v0.055h-0.027a0.713,0.713,0,0,0-.055.359,0.626,0.626,0,0,1-.028.3v0.028H984.71A0.33,0.33,0,0,0,984.627,49V48.974h-0.055l-0.083-.111h-0.055l-0.083-.11-0.083-.028-0.055-.083a0.516,0.516,0,0,0-.3-0.083,0.582,0.582,0,0,1-.221.055v0.027h-0.083v0.028l-0.166.055v0.028h-0.055v0.028l-0.111.028-0.11.138-0.056.028a0.246,0.246,0,0,1-.055.11l-0.027.221c0.016,0.069.065,0.144,0.082,0.221l0.083,0.028v0.028h0.056v0.028h0.11v0.028a0.516,0.516,0,0,0,.249-0.028h0.166V49.582h0.11V49.554h0.083V49.526a0.354,0.354,0,0,1,.221,0c0,0.265-.175.3-0.193,0.552l0.3,0.083,0.138,0.193V50.41h0.027v0.055h0.028c0.009,0.028.018,0.055,0.028,0.083l0.055,0.028v0.055l0.11,0.083,0.221,0.248a0.688,0.688,0,0,1,.166.111,0.607,0.607,0,0,0,.3-0.055V50.99h0.055V50.962h0.056V50.935l0.165-.028V50.879l0.5,0.028,0.635,0.221v0.028h0.056v0.028h0.083v0.028h0.055v0.028h0.083v0.028h0.055v0.028H987.2v0.028h0.083v0.028l0.165,0.028V51.4l0.111,0.028v0.028h0.055l0.028,0.055h0.055l0.028,0.055,0.138,0.111v0.055h0.028c0.018,0.055.036,0.11,0.055,0.166h0.027v0.083H988a0.684,0.684,0,0,0,.055.276,0.957,0.957,0,0,0,.442.138v0.028l0.249,0.055v0.028l0.111,0.028v0.028h0.083v0.028l0.11,0.028,0.028,0.055h0.055c0.009,0.018.018,0.037,0.028,0.055l0.138,0.11v0.055l0.055,0.028v0.083h0.028l0.027,0.276H989.38v0.138h-0.028V53.5h-0.028v0.055H989.3V53.64h-0.028c-0.009.037-.018,0.074-0.028,0.11h-0.027c-0.009.092-.019,0.184-0.028,0.276h-0.027v0.359c-0.028.166-.056,0.331-0.083,0.5h-0.028v0.083H989.02v0.055h-0.027V55.1l-0.055.028v0.055l-0.111.083c-0.009.028-.018,0.055-0.028,0.083h-0.055l-0.11.138h-0.056l-0.055.083h-0.055l-0.028.055h-0.055l-0.028.055H988.3c-0.009.018-.018,0.037-0.028,0.055l-0.082.028-0.056.083h-0.055l-0.055.083H988v0.055l-0.083.055V56.1l-0.055.028c-0.009.037-.018,0.074-0.028,0.111l-0.055.028v0.055l-0.055.028V56.4l-0.056.028-0.027.111-0.083.055c-0.009.028-.018,0.055-0.028,0.083H987.5v0.055l-0.111.083v0.055l-0.166.138-0.027.055h-0.055c-0.01.018-.019,0.037-0.028,0.055h-0.055l-0.194.138v0.055l-0.055.028c-0.009.037-.018,0.074-0.028,0.11a1.888,1.888,0,0,0-.221.966h0.028v0.028l0.249,0.055v0.028h0.055v0.028H987v0.028h0.083V58.61h0.083v0.028h0.083v0.028h0.111v0.028h0.11V58.72h0.111v0.028h0.11v0.028h0.111V58.8h0.138A6.078,6.078,0,0,0,989.6,59h0.856V58.969h0.3V58.941h0.249V58.914H991.2c0.136-.04.338-0.069,0.47-0.11h0.138V58.776l0.332-.055V58.693h0.11V58.665l0.194-.028V58.61h0.083V58.582h0.082V58.555H992.7V58.527h0.083V58.5l0.249-.055V58.417h0.055V58.389h0.083V58.361h0.055V58.334H993.3V58.306l0.111-.028V58.251H993.5V58.223h0.055V58.2l0.11-.028V58.141h0.083V58.113l0.166-.055V58.03h0.055V58l0.111-.028,0.027-.055h0.056V57.892h0.055V57.864h0.055V57.837h0.056l0.027-.055,0.166-.055c0.009-.018.018-0.037,0.028-0.055H994.6V57.644h0.055l0.028-.055h0.055c0.009-.018.018-0.037,0.028-0.055h0.055c0.009-.018.018-0.037,0.028-0.055h0.055l0.027-.055h0.056l0.027-.055h0.056l0.027-.055h0.055l0.056-.083h0.055l0.055-.083h0.055l0.056-.083h0.055l0.083-.11h0.055l0.111-.138h0.055l0.166-.193,0.083-.028,0.3-.331,0.221-.193V56.015l0.221-.193V55.766l0.138-.11V55.6l0.11-.083V55.462l0.083-.055V55.352L997.2,55.3V55.242l0.083-.055V55.131l0.055-.028c0.01-.028.019-0.055,0.028-0.083h0.028V54.965l0.055-.028V54.883l0.055-.028c0.009-.028.018-0.055,0.028-0.083h0.027c0.019-.083.037-0.166,0.056-0.248l0.193-.166c0.018-.055.037-0.111,0.055-0.166l0.056-.028c0.018-.055.036-0.11,0.055-0.166H998V53.944h0.028V53.889h0.028c0.018-.055.037-0.111,0.055-0.166h0.028V53.64h0.027V53.585h0.028l0.027-.111h0.028V53.392h0.028l0.027-.11h0.028V53.2h0.028V53.143h0.027c0.019-.083.037-0.166,0.056-0.248h0.027V52.84H998.5l0.027-.166h0.028v-0.11h0.028V52.481h0.027V52.4h0.028v-0.11h0.028V52.2h0.027V52.094h0.028v-0.11h0.027c0.01-.083.019-0.166,0.028-0.248H998.8V51.6h0.027c0.019-.175.037-0.35,0.056-0.524a3.164,3.164,0,0,0,.083-0.69H998.94a0.542,0.542,0,0,1-.194.11l-0.027.055h-0.083v0.028h-0.055V50.6H998.5v0.028h-0.083v0.028h-0.249V50.631h-0.083V50.6a0.247,0.247,0,0,0-.11-0.055,0.29,0.29,0,0,0-.083-0.138h-0.028V50.355l-0.055-.028c-0.018-.055-0.037-0.11-0.055-0.166l-0.055-.028-0.443-1.077h-0.027V49.2h0.027v0.166h0.028v0.11h0.028v0.138h0.027v0.11h0.028v0.11h0.028v0.083h0.027V50h0.028v0.083h0.027c0.01,0.055.019,0.11,0.028,0.166h0.028c0.018,0.055.037,0.11,0.055,0.166h0.028v0.055h0.027V50.52h0.028c0.009,0.037.018,0.074,0.028,0.11l0.055,0.028v0.055l0.083,0.055v0.055l0.221,0.166h0.055v0.028h0.055v0.028h0.166c0.261,0,.327.04,0.332,0.3h-0.028c-0.009.046-.018,0.092-0.028,0.138h-0.027v0.055l-0.056.027v0.055l-0.082.055v0.055l-0.3.276v0.055l-0.277.248V52.37l-0.138.11v0.055l-0.083.055v0.055l-0.055.028c-0.009.037-.018,0.074-0.028,0.11h-0.027c-0.019.055-.037,0.11-0.056,0.166h-0.027v0.083H997.42v0.083h-0.027v0.111h-0.028v0.166h-0.028v0.193H997.31v0.193h-0.028v0.166h-0.028v0.111h-0.027v0.083H997.2V54.22h-0.027V54.3h-0.028c-0.019.055-.037,0.111-0.055,0.166h-0.028v0.055h-0.028v0.055h-0.027v0.055h-0.028c-0.009.037-.018,0.074-0.028,0.111h-0.027v0.083H996.9l-0.027.11H996.84c-0.009.055-.018,0.11-0.028,0.166h-0.027v0.055h-0.028v0.083h-0.028v0.083H996.7v0.083h-0.028V55.49h-0.028v0.083h-0.027v0.083h-0.028c-0.018.055-.037,0.11-0.055,0.166h-0.028l-0.027.11-0.055.028v0.055l-0.249.221-0.083.11h-0.055l-0.056.083h-0.055c-0.009.018-.018,0.037-0.028,0.055h-0.055l-0.027.055a0.773,0.773,0,0,1-.415.138V56.65l-0.166-.028V56.594a0.233,0.233,0,0,0-.11-0.055,1.869,1.869,0,0,0-.111-0.193V56.125h-0.027V55.987h-0.028v-0.11h-0.028V55.794h-0.027V55.711h-0.028V55.628h-0.027V55.573h-0.028c-0.009-.055-0.018-0.11-0.028-0.166h-0.027V55.352H994.74c-0.064-.221-0.129-0.442-0.193-0.663V54.3h0.027c0.009-.313.019-0.626,0.028-0.939h-0.028v-0.11h-0.027V53.2h-0.028V53.143h-0.028V53.088h-0.027V53.033h-0.028V52.978h-0.028V52.922h-0.027c-0.019-.055-0.037-0.111-0.055-0.166H994.3V52.674H994.27V52.591h-0.027V52.508h-0.028V52.37h-0.028V52.2H994.16V52.039a0.415,0.415,0,0,0-.138-0.193c-0.01-.018-0.019-0.037-0.028-0.055h-0.3a0.459,0.459,0,0,0-.249-0.055,4.346,4.346,0,0,1-1.3-.083l-0.056-.083H992.06V51.514l-0.083-.055V51.4l-0.055-.028c-0.01-.037-0.019-0.074-0.028-0.111h-0.028V51.211h-0.027V51.155l-0.056-.028V51.073l-0.082-.055V50.935h-0.028V50.852h-0.028V50.686a2.33,2.33,0,0,1,.111-1.436V49.2l0.055-.028,0.083-.11h0.055c0.01-.018.019-0.037,0.028-0.055h0.055V48.974h0.055V48.947h0.083V48.919h0.056l0.193-.166,0.138-.414v-0.11h0.028V48.146h0.027V48.091h0.028V48.036l0.055-.028V47.953h0.028c0.009-.018.018-0.037,0.028-0.055h0.055V47.87a0.218,0.218,0,0,1,.11-0.055V47.787l-0.138-.028-0.027-.055H992.7V47.677a0.416,0.416,0,0,1-.221-0.138c-0.055-.052,0-0.015-0.027-0.083h-0.028V46.793h0.028c0.034-.066-0.011-0.04.055-0.083a0.642,0.642,0,0,1,.5.055h0.221a2.437,2.437,0,0,0-.359-0.828l0.083-.028V45.882l0.276,0.055c0.01-.018.019-0.037,0.028-0.055l0.11-.028V45.827l0.083-.028c0.01-.018.019-0.037,0.028-0.055l0.111-.028c0.018-.028.036-0.055,0.055-0.083h0.055l0.055-.083H993.8l0.027-.055h0.028V45.44l0.055-.028c0.019-.055.037-0.11,0.055-0.166l0.056-.028V45.164h0.027c0.019-.028.037-0.055,0.055-0.083h0.056l0.027-.055h0.056a0.357,0.357,0,0,1,.248-0.083v0.028L994.629,45v0.028h0.056v0.028l0.166,0.028v0.028a1.375,1.375,0,0,0,.635-0.083l0.083-.11H995.6c0.027-.083.055-0.166,0.082-0.249l0.056-.028V44.584l0.083-.055a0.4,0.4,0,0,0,.082-0.3c-0.067-.043-0.016-0.028-0.055-0.083l-0.055-.028a0.915,0.915,0,0,1-.083-0.5c-0.128.038-.083,0.065-0.138,0.166h-0.028c-0.018.055-.037,0.11-0.055,0.166h-0.028q-0.04.317-.083,0.635h-0.027c-0.048.154,0.03,0.19-.111,0.276a0.467,0.467,0,0,1-.331.055V44.888h-0.083V44.861h-0.055V44.833h-0.056l-0.083-.11h-0.055l-0.027-.055-0.111-.028V44.612H994.27a0.363,0.363,0,0,1-.359-0.331h0.028V44.17h0.027V44.115h0.028V44.06L994.077,44l0.138-.166,0.111-.028,0.11-.138,0.055-.028V43.591l0.056-.028,0.027-.083H994.6V43.425l0.055-.028V43.342l0.055-.028c0.01-.037.019-0.074,0.028-0.111l0.055-.028V43.121l0.083-.055V43.011l0.055-.028V42.928l0.111-.083V42.79l0.3-.276-0.138-.083V42.4h-0.056c-0.018-.028-0.036-0.055-0.055-0.083h-0.055l-0.028-.055h-0.055c-0.009-.019-0.018-0.037-0.028-0.055h-0.055l-0.027-.055H994.8l-0.027-.055-0.111-.028c-0.009-.018-0.018-0.037-0.028-0.055l-0.082-.028V41.962l-0.166-.055-0.028-.055-0.166-.055-0.027-.055-0.166-.055V41.658h-0.055V41.63h-0.056V41.6l-0.165-.055V41.52h-0.083V41.492H993.58V41.465l-0.166-.055V41.382h-0.083V41.354h-0.055V41.327l-0.139-.028V41.271l-0.165-.028V41.216h-0.056V41.189l-0.165-.028V41.133h-0.083V41.106h-0.083V41.078H992.5V41.05h-0.111a1.889,1.889,0,0,0-.525-0.138,1.541,1.541,0,0,0-.11.193v0.166h-0.028v0.138H991.7v0.11h-0.028V41.6l-0.055.028v0.055l-0.249.193c-0.009.037-.018,0.074-0.028,0.11h-0.027c-0.009.12-.019,0.239-0.028,0.359h-0.027v0.11h-0.028v0.055H991.2v0.055l-0.083.055v0.055l-0.055.028v0.028H991.01c-0.019.028-.037,0.055-0.055,0.083l-0.111.028c-0.009.018-.018,0.037-0.028,0.055h-0.082v0.028h-0.056v0.028H990.6v0.028h-0.11v0.028l-0.221.028v0.028l-0.111.028v0.028H990.1c-0.009.018-.018,0.037-0.028,0.055h-0.055l-0.055.083h-0.055l-0.139.166h-0.055l-0.083.11-0.248.221v0.055l-0.194.166v0.055l-0.11.083V44.17h-0.028a0.226,0.226,0,0,1-.193.11l-0.083-.11h-0.028V44.115h-0.027V44.06h-0.028V43.977h-0.028l-0.027-.11h-0.028V43.784h-0.028V43.729h-0.027V43.673h-0.028c-0.018-.055-0.037-0.11-0.055-0.166H988.44l-0.138-.469q0.014-.621.028-1.242c-0.028-.083-0.056-0.166-0.083-0.248h-0.028A0.231,0.231,0,0,1,988.164,41.437Zm3.177,1.767a1.539,1.539,0,0,1,.8.111v0.028l0.166,0.138c-0.016.055,0,.024-0.028,0.055a0.111,0.111,0,0,1-.111.11,1.262,1.262,0,0,1-.718.111V43.729l-0.138-.028a0.339,0.339,0,0,1-.055-0.469h0.082V43.2Zm5.195,0.414,0.055,0.083h0.028A0.141,0.141,0,0,0,996.536,43.618Zm-3.371.856a1,1,0,0,1,.3,1.022l-0.166.138h-0.276a0.523,0.523,0,0,0-.332-0.083v0.028H992.64c-0.009.018-.018,0.037-0.028,0.055a0.471,0.471,0,0,1-.359.028,0.427,0.427,0,0,1-.027-0.166,0.362,0.362,0,0,0,.055-0.083h0.028V45.357l0.082-.055a0.54,0.54,0,0,1,.415-0.248v0.028h0.083v0.028h0.027V45.081a0.491,0.491,0,0,1,0-.387c0.068-.043.017-0.032,0.056-0.083l0.11-.083V44.5h0.083V44.474Zm4.421,2.568V46.986l-0.166-.193h-0.055c-0.009-.018-0.018-0.037-0.028-0.055h-0.055V46.71H997.2V46.683h-0.193V46.655a0.308,0.308,0,0,1-.249-0.193h-0.028v0.028a0.767,0.767,0,0,0-.221.3l-0.055.028v0.055L996.4,46.9v0.055H996.37c-0.018.064-.037,0.129-0.055,0.193h0.028V47.18h0.165V47.152l0.166-.028V47.1h0.111V47.069a1.78,1.78,0,0,1,.69-0.083v0.028Zm0.718-.552c-0.027.1-.107,0.18-0.138,0.276a1.549,1.549,0,0,0,.083.69h0.028l0.027,0.166h0.028v0.055h0.028V47.76h0.027v0.055h0.028c0.009,0.028.018,0.055,0.028,0.083H998.5l0.027-.3H998.5V47.263H998.47c0.009-.138.019-0.276,0.028-0.414H998.47l-0.027-.166h-0.028c-0.019-.064-0.037-0.129-0.055-0.193H998.3Zm-3.122.138a0.641,0.641,0,0,0,.138.331c0.009,0.037.019,0.074,0.028,0.111L995.4,47.1a0.345,0.345,0,0,1,.083.248l-0.166.193h-0.055c-0.009.018-.018,0.037-0.028,0.055h-0.055c-0.009.018-.018,0.037-0.028,0.055a0.392,0.392,0,0,1-.193.083,0.354,0.354,0,0,1-.055-0.221h0.027V47.428a0.359,0.359,0,0,0,.083-0.221c-0.033-.026-0.055-0.09-0.083-0.11h-0.055l-0.027-.055-0.166-.055-0.028-.055H994.6c-0.019-.028-0.037-0.055-0.055-0.083h-0.056V46.821l-0.083-.055-0.027-.055H994.3V46.683a1.091,1.091,0,0,0-.58.414l-0.221.193v0.055l-0.056.028v0.055l-0.083.055v0.055h-0.027l-0.138.166h0.11a0.819,0.819,0,0,1,.415-0.028V47.7h0.027l0.359,0.028V47.76h0.083v0.028l0.083,0.055V47.9l0.056,0.028V47.98l0.082,0.055v0.055l0.111,0.083v0.055l0.055,0.028,0.083,0.11h0.055c0.01,0.018.019,0.037,0.028,0.055H994.8V48.45h0.056v0.028a0.748,0.748,0,0,0,.5-0.138l0.193-.221H995.6V48.091a0.629,0.629,0,0,1,.386.193h0.056v0.028h0.055v0.028h0.083v0.028h0.083v0.028h0.083v0.028h0.193V48.45l0.221-.028,0.055-.083a0.871,0.871,0,0,0,.056-0.5l-0.083-.028V47.787l-0.332-.028a0.813,0.813,0,0,1-.166-0.5H996.26a0.955,0.955,0,0,1-.056.525v0.028h-0.138l-0.3-.331V47.428l-0.055-.028V47.345l-0.055-.028-0.028-.083H995.6c-0.01-.037-0.019-0.074-0.028-0.11h-0.028l-0.027-.083-0.056-.028-0.027-.11-0.083-.055A0.5,0.5,0,0,0,995.182,46.628ZM984.9,51.321a1.231,1.231,0,0,1-.856-0.524l-0.221-.166-0.166-.193h-0.055l-0.028-.055-0.11-.028c-0.01-.018-0.019-0.037-0.028-0.055l-0.138-.028V50.244h-0.055V50.217h-0.083V50.189H983.08V50.161H983V50.134l-0.166-.028V50.079h-0.055V50.051h-0.083V50.023h-0.055V50h-0.056l-0.027-.055H982.5c-0.01-.018-0.019-0.037-0.028-0.055h-0.055l-0.056-.083-0.138-.11V49.637l-0.055-.028c-0.009-.028-0.018-0.055-0.028-0.083h-0.027V49.471h-0.028V49.416h-0.027V49.333H982.03V49.278H982V49.2h-0.027V49.112h-0.028V49.03h-0.028V48.947h-0.027c-0.019-.083-0.037-0.166-0.056-0.248h-0.027c-0.034-.069-0.054-0.129-0.083-0.193H981.7v0.166h0.028v0.166a0.851,0.851,0,0,1,.028.442h-0.111l-0.083-.111h-0.028V49.112h-0.027c-0.019-.055-0.037-0.11-0.055-0.166h-0.028V48.864h-0.028V48.809h-0.027c-0.01-.055-0.019-0.11-0.028-0.166h-0.028V48.56h-0.027V48.477h-0.028V48.395h-0.027V48.312H981.2c-0.028-.12-0.055-0.239-0.083-0.359H981.09V47.87h-0.027V47.787h-0.028V47.677h-0.028v-0.11H980.98V47.345h-0.028q-0.11.511-.221,1.022V48.56H980.7v0.193h-0.028v0.3h-0.028V49.5h-0.027v0.193l0.027,0.607a4.5,4.5,0,0,0,.138,1.16c0.01,0.1.019,0.2,0.028,0.3h0.028c0.018,0.12.037,0.239,0.055,0.359h0.028c0.018,0.1.036,0.2,0.055,0.3h0.027v0.083h0.028v0.083h0.028v0.083h0.027v0.083h0.028V52.84h0.028v0.083h0.027v0.083H981.2V53.06h0.028l0.027,0.166h0.028v0.055h0.027v0.083h0.028c0.009,0.037.018,0.074,0.028,0.11h0.027v0.083h0.028v0.055h0.028l0.027,0.111h0.028v0.055h0.027v0.055h0.028v0.055h0.028v0.055h0.027V54h0.028v0.055h0.028V54.11H981.7v0.055h0.028V54.22h0.028v0.055l0.055,0.028c0.018,0.055.037,0.111,0.055,0.166l0.055,0.028c0.009,0.037.019,0.074,0.028,0.11L982,54.634c0.009,0.037.019,0.074,0.028,0.111h0.028l0.027,0.083,0.055,0.028V54.91l0.056,0.028v0.055h0.027c0.009,0.028.019,0.055,0.028,0.083l0.055,0.028v0.055l0.083,0.055v0.055l0.083,0.055V55.38l0.083,0.055V55.49l0.055,0.028v0.028l0.055,0.028v0.055l0.139,0.111v0.055l0.165,0.138v0.055l0.415,0.386,0.248,0.276h0.056l0.165,0.193h0.056l0.11,0.138h0.056c0.018,0.028.036,0.055,0.055,0.083h0.055l0.083,0.111h0.055c0.019,0.028.037,0.055,0.055,0.083h0.056v0.028l0.083,0.028,0.027,0.055H984.6l0.055,0.083h0.055c0.009,0.018.018,0.037,0.028,0.055l0.11,0.028v0.028l0.083,0.028,0.028,0.055,0.11,0.028,0.028,0.055,0.856,0.442V58.085h-0.027c-0.019-.11-0.037-0.221-0.055-0.331h-0.028V57.616c-0.166-.539.023-1.431-0.138-1.988V55.407h-0.028V55.242h-0.028V55.076h-0.027v-0.11h-0.028v-0.11h-0.027v-0.11h-0.028V54.689h-0.028l-0.027-.138-0.056-.028-0.027-.083-0.083-.055V54.33l-0.055-.028V54.248l-0.056-.028V54.165l-0.055-.028V54.082l-0.055-.028c-0.009-.037-0.019-0.074-0.028-0.111l-0.055-.028c-0.009-.037-0.018-0.074-0.028-0.111l-0.055-.028V53.723l-0.055-.028V53.64l-0.055-.028V53.557l-0.056-.028V53.475l-0.055-.028V53.392l-0.055-.028V53.309h-0.028V53.254H984.6V53.171h-0.028V53.088h-0.028V52.895h-0.027q0.027-.276.055-0.552H984.6l0.027-.193h0.028V52.094h0.027V52.011A3.056,3.056,0,0,0,984.9,51.321Zm13.843-2.209c0.01,0.046.019,0.092,0.028,0.138a0.672,0.672,0,0,1,.194.11V49.14A0.579,0.579,0,0,0,998.746,49.112Zm-13.787.58c-0.02,0-.211-0.049-0.221-0.055-0.01-.028-0.019-0.055-0.028-0.083h-0.028c0.049-.144.059-0.3,0.249-0.3,0.042,0.062.124,0.08,0.166,0.138v0.055l0.166,0.138v0.055l0.055,0.028,0.083,0.11h0.055c0.009,0.018.018,0.037,0.028,0.055L985.953,50v0.083a0.376,0.376,0,0,0-.11.083l-0.276.028-0.581-.11a0.867,0.867,0,0,1-.027-0.276h0.027Z" transform="translate(-979.688 -39.719)"/>
</svg>
