<svg xmlns="http://www.w3.org/2000/svg" xmlns:xlink="http://www.w3.org/1999/xlink" width="8.12" height="7.282" viewBox="0 0 8.12 7.282">
  <metadata><?xpacket begin="﻿" id="W5M0MpCehiHzreSzNTczkc9d"?>
<x:xmpmeta xmlns:x="adobe:ns:meta/" x:xmptk="Adobe XMP Core 5.6-c138 79.159824, 2016/09/14-01:09:01        ">
   <rdf:RDF xmlns:rdf="http://www.w3.org/1999/02/22-rdf-syntax-ns#">
      <rdf:Description rdf:about=""/>
   </rdf:RDF>
</x:xmpmeta>
                                                                                                    
                                                                                                    
                                                                                                    
                                                                                                    
                                                                                                    
                                                                                                    
                                                                                                    
                                                                                                    
                                                                                                    
                                                                                                    
                                                                                                    
                                                                                                    
                                                                                                    
                                                                                                    
                                                                                                    
                                                                                                    
                                                                                                    
                                                                                                    
                                                                                                    
                                                                                                    
                           
<?xpacket end="w"?></metadata>
<defs>
    <style>
      .cls-1 {
        fill: #4d4d4d;
        fill-rule: evenodd;
        opacity: 0.41;
        filter: url(#filter);
      }
    </style>
    <filter id="filter" x="1076.97" y="128.281" width="8.12" height="7.282" filterUnits="userSpaceOnUse">
      <feFlood result="flood"/>
      <feComposite result="composite" operator="in" in2="SourceGraphic"/>
      <feBlend result="blend" in2="SourceGraphic"/>
      <feGaussianBlur result="blur" stdDeviation="1" in="SourceAlpha"/>
      <feFlood result="flood-2" flood-opacity="0.75"/>
      <feComposite result="composite-2" operator="out" in2="blur"/>
      <feOffset result="offset" dx="0.707" dy="0.707"/>
      <feComposite result="composite-3" operator="in" in2="SourceAlpha"/>
      <feBlend result="blend-2" in2="blend"/>
    </filter>
  </defs>
  <path id="Icon" class="cls-1" d="M1078.25,130.572a0.638,0.638,0,0,0,.16-0.426,0.708,0.708,0,0,0-.71-0.686,0.692,0.692,0,0,0-.08,1.382l1.09,2.831a20.3,20.3,0,0,1,2.33-.165c0.98,0,1.7.116,2.33,0.165l1.07-2.841a0.691,0.691,0,0,0,.66-0.686,0.722,0.722,0,1,0-1.27.416l-1.04,1.13-0.44-2.009a0.66,0.66,0,0,0,.57-0.677,0.75,0.75,0,0,0-.77-0.734,0.763,0.763,0,0,0-.77.734,0.668,0.668,0,0,0,.36.59l-0.72,1.99H1081l-0.69-1.99a0.721,0.721,0,0,0,.31-0.59,0.771,0.771,0,0,0-1.54,0,0.682,0.682,0,0,0,.53.677l-0.36,2.009Zm5.72,4.994c0-.435.01-1.3-0.58-1.352-0.63-.049-1.35-0.165-2.33-0.165a20.147,20.147,0,0,0-2.33.165c-0.65.077-.64,0.811-0.64,1.352h5.88Z" transform="translate(-1076.97 -128.281)"/>
</svg>
