<svg xmlns="http://www.w3.org/2000/svg" width="12.16" height="12.157" viewBox="0 0 12.16 12.157">
    <metadata><?xpacket begin="﻿" id="W5M0MpCehiHzreSzNTczkc9d"?>
        <x:xmpmeta xmlns:x="adobe:ns:meta/" x:xmptk="Adobe XMP Core 5.6-c138 79.159824, 2016/09/14-01:09:01        ">
            <rdf:RDF xmlns:rdf="http://www.w3.org/1999/02/22-rdf-syntax-ns#">
                <rdf:Description rdf:about=""/>
            </rdf:RDF>
        </x:xmpmeta>


        <?xpacket end="w"?>
    </metadata>
    <defs>
        <style>
            .cls-1 {
            fill: #4d4d4d;
            fill-rule: evenodd;
            }
        </style>
    </defs>
    <path id="Logout_Icon" data-name="Logout Icon" class="cls-1"
          d="M1199.13,122.309l2.46-1.52h-5.5a1.512,1.512,0,0,0-1.52,1.52c0.01,1.486,0,9.118,0,9.118a1.615,1.615,0,0,0,1.43,1.519c1.28,0.006,9.2,0,9.2,0a1.62,1.62,0,0,0,1.52-1.614c0.01-1.509,0-6.174,0-6.174l-1.52,1.14v4.559a0.808,0.808,0,0,1-.57.57c-0.38,0-7.97,0-7.97,0a0.873,0.873,0,0,1-.57-0.57v-7.978a0.694,0.694,0,0,1,.57-0.57C1197.11,122.306,1199.13,122.309,1199.13,122.309Zm3.79,0v0Zm3.7,0.76-3.7-2.28v1.52s-4.91-.083-5.31,5.983c-0.01.066,1.57-4.075,5.31-4.558,0.01,0,0,1.519,0,1.519Z"
          transform="translate(-1194.56 -120.781)"/>
</svg>
