<svg xmlns="http://www.w3.org/2000/svg" xmlns:xlink="http://www.w3.org/1999/xlink" width="8.13" height="7.313"
     viewBox="0 0 8.13 7.313">
    <metadata><?xpacket begin="﻿" id="W5M0MpCehiHzreSzNTczkc9d"?>
        <x:xmpmeta xmlns:x="adobe:ns:meta/" x:xmptk="Adobe XMP Core 5.6-c138 79.159824, 2016/09/14-01:09:01        ">
            <rdf:RDF xmlns:rdf="http://www.w3.org/1999/02/22-rdf-syntax-ns#">
                <rdf:Description rdf:about=""/>
            </rdf:RDF>
        </x:xmpmeta>


        <?xpacket end="w"?>
    </metadata>
    <defs>
        <style>
            .cls-1 {
            fill: #4d4d4d;
            fill-rule: evenodd;
            opacity: 0.41;
            filter: url(#filter);
            }
        </style>
        <filter id="filter" x="1250.53" y="128.25" width="8.13" height="7.313" filterUnits="userSpaceOnUse">
            <feFlood result="flood"/>
            <feComposite result="composite" operator="in" in2="SourceGraphic"/>
            <feBlend result="blend" in2="SourceGraphic"/>
            <feGaussianBlur result="blur" stdDeviation="1" in="SourceAlpha"/>
            <feFlood result="flood-2" flood-opacity="0.75"/>
            <feComposite result="composite-2" operator="out" in2="blur"/>
            <feOffset result="offset" dx="0.707" dy="0.707"/>
            <feComposite result="composite-3" operator="in" in2="SourceAlpha"/>
            <feBlend result="blend-2" in2="blend"/>
        </filter>
    </defs>
    <path id="Icon" class="cls-1"
          d="M1254.14,130.309a1,1,0,0,0-.07-0.149h-0.01v-0.037h-0.02V130.1h-0.02v-0.037H1254v-0.025h-0.02V130h-0.01a0.11,0.11,0,0,1-.02-0.05h-0.02v-0.037h-0.02v-0.025h-0.02V129.85h-0.01v-0.025h-0.02c-0.01-.013-0.01-0.025-0.02-0.038h0.02l0.48,0.5h0.13a0.771,0.771,0,0,1,.25-0.012l0.41,0.012V130.3h0.05v0.012h0.05v0.012h0.06v0.013h0.03v0.012a0.276,0.276,0,0,0,.09.025v-0.012a0.138,0.138,0,0,0,.09-0.075c0.04-.02.07-0.041,0.11-0.062V130.2l0.09-.049v-0.025c0.04-.021.07-0.042,0.11-0.062v-0.025c0.03-.021.07-0.042,0.1-0.062v-0.025l0.09-.05v-0.025c0.04-.02.07-0.041,0.11-0.062v-0.025l0.09-.049v-0.025c0.04-.021.07-0.042,0.11-0.062v-0.025l0.09-.05v-0.025a0.234,0.234,0,0,1,.05-0.024,0.147,0.147,0,0,1,.04-0.038h0.01v-0.025c0.03-.012.05-0.024,0.08-0.037,0-.02.01-0.041,0.01-0.062h0.02a0.314,0.314,0,0,0-.11-0.261,0.267,0.267,0,0,1-.09-0.074h-0.03a1.1,1.1,0,0,0-.54-0.211,0.341,0.341,0,0,1-.09.124c0,0.016-.01.033-0.01,0.05a0.2,0.2,0,0,0-.04.012c-0.01.016-.01,0.033-0.02,0.05h-0.02v0.025h-0.01V129.1h-0.02v0.025h-0.02v0.025h-0.02v0.025h-0.02c0,0.016-.01.033-0.01,0.049h-0.02v0.025h-0.02v0.025h-0.02V129.3h-0.01v0.025h-0.02v0.025a0.482,0.482,0,0,0-.09.124h-0.02c0.14-.319.27-0.638,0.41-0.956a1.076,1.076,0,0,0-.11-0.063v-0.012h-0.03c-0.01-.008-0.01-0.016-0.02-0.025h-0.04v-0.012l-0.07-.013v-0.012l-0.09-.012v-0.013h-0.05v-0.012c-0.04,0-.08-0.009-0.13-0.013v-0.012h-0.08v-0.013h-0.09V128.3h-0.13v-0.012h-0.16a2.582,2.582,0,0,0-.39-0.013,3.825,3.825,0,0,0-.84.075l-0.24.037V128.4h-0.03v0.013h-0.05v0.012h-0.04v0.013h-0.04c0,0.008-.01.016-0.01,0.024h-0.04c-0.01.009-.01,0.017-0.02,0.025s-0.03.009-.05,0.013c0.15,0.26.31,0.521,0.46,0.782h-0.01v-0.025a0.311,0.311,0,0,1-.11-0.1l-0.06-.025V129.1a0.234,0.234,0,0,0-.05-0.024v-0.025c-0.02-.009-0.03-0.017-0.05-0.025v-0.025c-0.01,0-.03-0.008-0.04-0.012v-0.025c-0.02-.013-0.05-0.025-0.07-0.038v-0.024a0.143,0.143,0,0,0-.04-0.013v-0.025c0-.007-0.02-0.009-0.03-0.024-0.04.007-.02,0-0.04,0.012a0.371,0.371,0,0,1-.05.012v0.013a0.371,0.371,0,0,0-.05.012,0.044,0.044,0,0,0-.02.025h-0.04c-0.02.017-.03,0.033-0.05,0.05l-0.09.049v0.025a0.186,0.186,0,0,1-.04.013v0.025l-0.03.012c-0.01.016-.01,0.033-0.02,0.05h-0.02v0.037h-0.02v0.062h-0.01v0.074h0.01v0.05h0.02V129.4h0.02c0.01,0.017.01,0.034,0.02,0.05l0.03,0.012v0.025c0.03,0.013.05,0.025,0.08,0.038v0.024c0.03,0.021.07,0.042,0.1,0.063v0.024c0.04,0.025.09,0.05,0.13,0.075,0.18,0.176.4,0.321,0.59,0.5a0.445,0.445,0,0,0,.07.037v0.012l0.03,0.013V130.3a0.2,0.2,0,0,1,.04.012l0.09,0.075A1.938,1.938,0,0,1,1254.14,130.309Zm0.25,0.174-0.42.646h-0.02v-0.05h0.02l0.03-.161h0.02a1.092,1.092,0,0,1,.04-0.174,1.768,1.768,0,0,0,.08-0.236,0.948,0.948,0,0,0-.42.124l-0.08.012v0.013a0.371,0.371,0,0,1-.05.012c-0.01.009-.01,0.017-0.02,0.025h-0.03c-0.01.008-.01,0.017-0.02,0.025h-0.04l-0.03.037h-0.04a0.044,0.044,0,0,1-.02.025h-0.03l-0.06.05h-0.03a0.233,0.233,0,0,0-.05.049h-0.04a0.261,0.261,0,0,0-.05.05h-0.02c-0.01.008-.01,0.017-0.02,0.025h-0.04c-0.05.045-.11,0.091-0.17,0.136h-0.04c-0.05.042-.11,0.083-0.16,0.125l-0.09.049v0.025c-0.08.05-.15,0.1-0.23,0.149v0.025c-0.04.021-.07,0.041-0.11,0.062v0.025c-0.04.021-.07,0.042-0.11,0.062v0.025a0.445,0.445,0,0,1-.07.037V131.7c-0.02.012-.05,0.025-0.07,0.037v0.025c-0.02.013-.05,0.025-0.07,0.037v0.025a0.287,0.287,0,0,0-.05.025v0.025l-0.06.025v0.025c-0.02.008-.03,0.016-0.05,0.024v0.025l-0.06.025c0,0.013-.01.025-0.01,0.037a0.268,0.268,0,0,0-.04.013v0.025l-0.03.012a0.072,0.072,0,0,0-.02.037h-0.02v0.025a0.186,0.186,0,0,1-.04.013v0.024l-0.03.013v0.025c-0.01,0-.03.008-0.04,0.012v0.025l-0.03.012V132.3a0.186,0.186,0,0,0-.04.013v0.025h-0.02v0.024l-0.03.013a0.1,0.1,0,0,0-.02.049,0.143,0.143,0,0,1-.04.013v0.025h-0.01v0.024a0.268,0.268,0,0,0-.04.013,0.274,0.274,0,0,1-.04.075l-0.03.012v0.025h-0.02v0.025h-0.02v0.024h-0.02v0.025h-0.01v0.025h-0.02v0.025h-0.02v0.025h-0.02v0.025h-0.01v0.024a0.268,0.268,0,0,0-.04.013v0.037h-0.02v0.025h-0.02v0.025h-0.01a0.269,0.269,0,0,0-.04.074h-0.02v0.038h-0.02c0,0.016-.01.033-0.01,0.049h-0.02V133.1h-0.02v0.024h-0.02v0.038h-0.01v0.024h-0.02c-0.01.025-.01,0.05-0.02,0.075h-0.02V133.3h-0.02v0.038h-0.01v0.037h-0.02v0.037h-0.02v0.037h-0.02l-0.03.149a1.209,1.209,0,0,0,.01,1.019,0.21,0.21,0,0,1,.02.074h0.02v0.025h0.02v0.037h0.02c0,0.017.01,0.033,0.01,0.05h0.02c0.01,0.017.01,0.033,0.02,0.05a0.2,0.2,0,0,0,.04.012c0,0.017.01,0.033,0.01,0.05l0.04,0.012v0.025l0.03,0.013v0.024c0.03,0.013.05,0.025,0.08,0.038v0.024c0.06,0.038.12,0.075,0.17,0.112a1.3,1.3,0,0,1,.13.1l0.07,0.012c0.01,0.008.01,0.017,0.02,0.025l0.09,0.012v0.013h0.03v0.012c0.18,0.033.35,0.066,0.52,0.1h0.11c0.1,0.02.24,0.03,0.34,0.05l0.3,0.013v0.012h0.18v0.012h0.22v0.013h0.26v0.012h0.36a2.529,2.529,0,0,0,.38.013h0.66a3.651,3.651,0,0,0,.57-0.013c0.1-.02.27,0.006,0.36-0.012h0.27v-0.013h0.21v-0.012h0.18V135.5h0.16c0.15-.029.34-0.033,0.48-0.063h0.11c0.17-.033.34-0.066,0.52-0.1v-0.012h0.03v-0.013l0.09-.012c0.01-.008.01-0.017,0.02-0.025l0.07-.012c0.01-.009.01-0.017,0.02-0.025a0.455,0.455,0,0,1,.16-0.087v-0.025c0.05-.029.1-0.058,0.14-0.087v-0.025l0.06-.025v-0.024c0.02-.009.03-0.017,0.05-0.025v-0.025a0.268,0.268,0,0,1,.04-0.013c0-.016.01-0.033,0.01-0.049a0.143,0.143,0,0,0,.04-0.013c0.01-.016.01-0.033,0.02-0.049h0.02c0-.017.01-0.033,0.01-0.05h0.02v-0.037h0.02v-0.025h0.02a0.146,0.146,0,0,1,.02-0.062h0.01l0.09-.261v-0.1h0.02a0.8,0.8,0,0,0-.02-0.311,1.355,1.355,0,0,0-.02-0.2h-0.01v-0.062h-0.02v-0.062h-0.02v-0.05h-0.02v-0.049h-0.01v-0.05h-0.02v-0.037h-0.02V133.4h-0.02v-0.05h-0.02c0-.025-0.01-0.05-0.01-0.075h-0.02v-0.024h-0.02c-0.01-.025-0.01-0.05-0.02-0.075h-0.02v-0.025h-0.01v-0.037h-0.02c-0.01-.017-0.01-0.033-0.02-0.05h-0.02v-0.037h-0.01V133h-0.02c-0.01-.016-0.01-0.033-0.02-0.05h-0.02v-0.037h-0.02l-0.03-.074h-0.02v-0.025h-0.02v-0.025h-0.02l-0.03-.074c-0.01,0-.03-0.009-0.04-0.013v-0.025H1258v-0.025h-0.01v-0.024h-0.02v-0.025a0.186,0.186,0,0,0-.04-0.013l-0.03-.074c-0.01,0-.03-0.008-0.04-0.013a0.1,0.1,0,0,0-.02-0.049l-0.03-.013c-0.01-.016-0.01-0.033-0.02-0.049a0.143,0.143,0,0,0-.04-0.013v-0.025l-0.03-.012v-0.025a0.2,0.2,0,0,0-.04-0.012v-0.025l-0.03-.013c-0.01-.016-0.01-0.033-0.02-0.049a0.287,0.287,0,0,1-.05-0.025v-0.025h-0.02c-0.01-.012-0.01-0.025-0.02-0.037a0.186,0.186,0,0,0-.04-0.013V132.1a0.193,0.193,0,0,0-.05-0.025v-0.025l-0.03-.013v-0.024l-0.06-.025v-0.025c-0.02-.008-0.03-0.017-0.05-0.025v-0.025l-0.06-.025v-0.024a0.441,0.441,0,0,0-.07-0.038V131.8a0.548,0.548,0,0,0-.07-0.037v-0.025l-0.09-.049v-0.025a0.918,0.918,0,0,0-.11-0.062v-0.025l-0.12-.075v-0.024l-0.21-.137v-0.025c-0.05-.025-0.09-0.05-0.13-0.074-0.05-.042-0.11-0.083-0.16-0.125h-0.04V131.1a0.23,0.23,0,0,0-.05-0.025c-0.04-.029-0.07-0.058-0.11-0.087h-0.03c-0.04-.029-0.07-0.058-0.11-0.087h-0.04c0-.008-0.01-0.016-0.01-0.025h-0.02c-0.01-.012-0.03-0.025-0.04-0.037h-0.03l-0.06-.05h-0.03c-0.01-.012-0.03-0.024-0.04-0.037h-0.03a0.146,0.146,0,0,1-.04-0.037h-0.04c0-.008-0.01-0.017-0.01-0.025h-0.04c-0.01-.008-0.01-0.016-0.02-0.025h-0.03c-0.01-.008-0.01-0.016-0.02-0.025h-0.04c0-.008-0.01-0.016-0.01-0.024h-0.04c-0.01-.009-0.01-0.017-0.02-0.025l-0.07-.013V130.57c-0.02,0-.05-0.008-0.07-0.013v-0.012c-0.06-.019-0.14-0.021-0.2-0.037v0.025c0.16,0.19.31,0.381,0.47,0.571h-0.02v-0.013a0.289,0.289,0,0,1-.07-0.074l-0.06-.025v-0.025a0.234,0.234,0,0,0-.05-0.024v-0.025a0.186,0.186,0,0,0-.04-0.013V130.88l-0.03-.012c-0.01-.013-0.01-0.025-0.02-0.037s-0.03-.017-0.05-0.025v-0.025l-0.06-.025c0-.012-0.01-0.025-0.01-0.037a0.2,0.2,0,0,1-.04-0.012v-0.025a0.186,0.186,0,0,0-.04-0.013v-0.025a0.548,0.548,0,0,0-.07-0.037v-0.025l-0.03-.012c-0.01-.011-0.07-0.084-0.07-0.087h-0.25A0.708,0.708,0,0,0,1254.39,130.483Zm0.83,1.3v0.46h0.87v0.31h-0.52v1.49H1256c0.03,0.112.05,0.224,0.07,0.336h-0.85v0.459h-0.38v-0.459h-0.3v0.459h-0.4v-0.459a4.74,4.74,0,0,1-.62-0.075V134.3h-0.05v-0.013l-0.08-.012v-0.012l-0.09-.013c0-.008-0.01-0.016-0.01-0.025h-0.04l-0.03-.037h-0.04c-0.01-.008-0.01-0.016-0.02-0.025h-0.02v-0.025a0.548,0.548,0,0,0-.07-0.037v-0.025l-0.03-.012a0.106,0.106,0,0,1-.02-0.05H1253a0.1,0.1,0,0,0-.02-0.049h-0.01a0.274,0.274,0,0,1-.02-0.087h-0.02V133.8h-0.02a0.35,0.35,0,0,1,.06-0.273v-0.037h0.01a0.11,0.11,0,0,0,.02-0.05l0.18-.137h0.04l0.03-.037,0.07-.012c0.01-.009.01-0.017,0.02-0.025h0.04v-0.013l0.09-.012a0.3,0.3,0,0,0-.11-0.1c-0.01-.005-0.03-0.009-0.04-0.013v-0.025c-0.02-.008-0.03-0.016-0.05-0.025v-0.024a0.143,0.143,0,0,0-.04-0.013v-0.025l-0.03-.012V132.93h-0.02v-0.025h-0.02v-0.05h-0.02a0.363,0.363,0,0,1,.06-0.236c0.02-.037.03-0.074,0.05-0.112a1.416,1.416,0,0,1,.89-0.26v-0.46h0.38v0.46h0.32v-0.46h0.38Zm-0.34.758a1.13,1.13,0,0,0-.99.223,0.289,0.289,0,0,0,.06.211c0.02,0.009.03,0.017,0.05,0.025a1.545,1.545,0,0,0,.88.137v-0.6Zm0,0.869a2.906,2.906,0,0,0-1,.075l-0.06.049a0.347,0.347,0,0,1-.05.013,0.461,0.461,0,0,1-.07.087c-0.01.44,0.55,0.414,1.18,0.409v-0.633Z"
          transform="translate(-1250.53 -128.25)"/>
</svg>
