<svg xmlns="http://www.w3.org/2000/svg" width="9.75" height="12.156" viewBox="0 0 9.75 12.156">
    <metadata><?xpacket begin="﻿" id="W5M0MpCehiHzreSzNTczkc9d"?>
        <x:xmpmeta xmlns:x="adobe:ns:meta/" x:xmptk="Adobe XMP Core 5.6-c138 79.159824, 2016/09/14-01:09:01        ">
            <rdf:RDF xmlns:rdf="http://www.w3.org/1999/02/22-rdf-syntax-ns#">
                <rdf:Description rdf:about=""/>
            </rdf:RDF>
        </x:xmpmeta>


        <?xpacket end="w"?>
    </metadata>
    <defs>
        <style>
            .cls-1 {
            fill: #4d4d4d;
            fill-rule: evenodd;
            }
        </style>
    </defs>
    <path id="Profile_Icon" data-name="Profile Icon" class="cls-1"
          d="M1205.06,91.078c-0.04.4-1.87,1.3-4.71,1.335v0l-0.1,0-0.1,0v0c-2.84-.037-4.67-0.934-4.71-1.335-0.58-4.925,3.45-4.653,3.48-4.589a2.087,2.087,0,0,0,2.66,0C1201.61,86.424,1205.64,86.153,1205.06,91.078Zm-4.71-4.992v0.021s-0.04,0-.1-0.008-0.1.008-.1,0.008V86.085c-0.61-.087-2.4-0.559-2.36-3.134,0.05-2.728,1.99-2.728,2.46-2.688,0.47-.039,2.41-0.039,2.46,2.688C1202.75,85.526,1200.96,86,1200.35,86.085Z"
          transform="translate(-1195.38 -80.25)"/>
</svg>
