<svg xmlns="http://www.w3.org/2000/svg" width="12" height="12.157" viewBox="0 0 12 12.157">
  <metadata><?xpacket begin="﻿" id="W5M0MpCehiHzreSzNTczkc9d"?>
<x:xmpmeta xmlns:x="adobe:ns:meta/" x:xmptk="Adobe XMP Core 5.6-c138 79.159824, 2016/09/14-01:09:01        ">
   <rdf:RDF xmlns:rdf="http://www.w3.org/1999/02/22-rdf-syntax-ns#">
      <rdf:Description rdf:about=""/>
   </rdf:RDF>
</x:xmpmeta>
                                                                                                    
                                                                                                    
                                                                                                    
                                                                                                    
                                                                                                    
                                                                                                    
                                                                                                    
                                                                                                    
                                                                                                    
                                                                                                    
                                                                                                    
                                                                                                    
                                                                                                    
                                                                                                    
                                                                                                    
                                                                                                    
                                                                                                    
                                                                                                    
                                                                                                    
                                                                                                    
                           
<?xpacket end="w"?></metadata>
<defs>
    <style>
      .cls-1 {
        fill: #4d4d4d;
        fill-rule: evenodd;
      }
    </style>
  </defs>
  <path id="Settings_Icon" data-name="Settings Icon" class="cls-1" d="M1206.41,106.582V107.3s0.14,0.222-1.65.817a2.29,2.29,0,0,0-.19.489,5.194,5.194,0,0,1,.59,1.775c-0.17.2-.98,1-0.98,1s0.05,0.191-1.75-.571c-0.01-.006-0.49.2-0.49,0.2s-0.46,1.687-.83,1.673c-0.26-.011-0.5-0.006-0.6,0v0l-0.03,0-0.03,0v0c-0.11,0-.34-0.008-0.61,0-0.36.014-.82-1.673-0.82-1.673s-0.48-.21-0.49-0.2c-1.8.762-1.75,0.571-1.75,0.571s-0.81-.8-0.98-1a5.194,5.194,0,0,1,.59-1.775,1.913,1.913,0,0,0-.2-0.489c-1.79-.595-1.65-0.817-1.65-0.817v-1.387s-0.14-.222,1.65-0.816a1.933,1.933,0,0,0,.2-0.49,5.187,5.187,0,0,1-.59-1.775c0.17-.2.98-1,0.98-1s-0.05-.19,1.75.572c0.01,0,.49-0.2.49-0.2s0.46-1.688.82-1.673c0.27,0.01.5,0.005,0.61,0v0h0.06v0c0.1,0,.34.008,0.6,0,0.37-.015.83,1.673,0.83,1.673s0.48,0.209.49,0.2c1.8-.762,1.75-0.572,1.75-0.572s0.81,0.8.98,1a5.187,5.187,0,0,1-.59,1.775,2.318,2.318,0,0,0,.19.49c1.79,0.594,1.65.816,1.65,0.816v0.673Zm-5.93-2.1a2.122,2.122,0,1,0,2.05,2.12A2.111,2.111,0,0,0,1200.48,104.482Z" transform="translate(-1194.41 -100.531)"/>
</svg>
