<svg xmlns="http://www.w3.org/2000/svg" width="12.187" height="12.156" viewBox="0 0 12.187 12.156">
  <metadata><?xpacket begin="﻿" id="W5M0MpCehiHzreSzNTczkc9d"?>
<x:xmpmeta xmlns:x="adobe:ns:meta/" x:xmptk="Adobe XMP Core 5.6-c138 79.159824, 2016/09/14-01:09:01        ">
   <rdf:RDF xmlns:rdf="http://www.w3.org/1999/02/22-rdf-syntax-ns#">
      <rdf:Description rdf:about=""/>
   </rdf:RDF>
</x:xmpmeta>
                                                                                                    
                                                                                                    
                                                                                                    
                                                                                                    
                                                                                                    
                                                                                                    
                                                                                                    
                                                                                                    
                                                                                                    
                                                                                                    
                                                                                                    
                                                                                                    
                                                                                                    
                                                                                                    
                                                                                                    
                                                                                                    
                                                                                                    
                                                                                                    
                                                                                                    
                                                                                                    
                           
<?xpacket end="w"?></metadata>
<defs>
    <style>
      .cls-1 {
        fill: #b9b9b9;
        fill-rule: evenodd;
      }
    </style>
  </defs>
  <path id="Diagramma" class="cls-1" d="M747.5,65.618a0.26,0.26,0,0,1,.119.071v0.024h0.047l0.1,0.119h0.024l0.024,0.047h0.047L748,66.046h0.047l0.143,0.166h0.047l0.048,0.071,0.095,0.071v0.024h0.047l0.143,0.166c0.423,0.306.765,0.692,1.188,1l0.143,0.166h0.047l0.143,0.166h0.047l0.143,0.166h0.047a0.305,0.305,0,0,0,.143.119V68.136H750.5l0.024-.1h0.024V67.969h0.024l0.024-.095h0.023V67.827h0.024l0.024-.095h0.024V67.661h0.023l0.024-.095h0.024l0.024-.095h0.023V67.423h0.024V67.352h0.024V67.3h0.024V67.257H750.9l0.048-.142h0.024V67.043H751V67h0.024V66.948h0.024c0.016-.048.032-0.1,0.047-0.142h0.024V66.734h0.024l0.024-.095h0.023l0.024-.095h0.024V66.5h0.024V66.426h0.024V66.378H751.3V66.331h0.024l0.048-.142H751.4V66.117h0.024V66.069h0.024V66.022h0.024c0.015-.047.031-0.095,0.047-0.142h0.024V65.808h0.024V65.761h0.023V65.713h0.024l0.048-.142h0.023V65.5h0.024V65.452h0.024V65.4h0.024c0.016-.047.031-0.1,0.047-0.143h0.024V65.191h0.024V65.143h0.024V65.1H751.9l0.048-.142h0.024V64.882h0.023V64.834h0.024V64.787h0.024c0.016-.047.032-0.095,0.047-0.142h0.024V64.573h0.024V64.525h0.024V64.478h0.023l0.048-.142h0.024V64.264h0.023V64.217H752.3V64.169h0.024c0.016-.048.032-0.1,0.047-0.143H752.4V63.956h0.024V63.908h0.024c0.008-.032.016-0.063,0.023-0.1h0.024l0.024-.095h0.024V63.647h0.024c0.015-.047.031-0.095,0.047-0.142h0.024a0.991,0.991,0,0,1,.142-0.309v0.024l1.592,1.568,0.4,0.4a0.428,0.428,0,0,0,.19.166c0.032-.087.064-0.174,0.1-0.261h0.024V65.024h0.024V64.977h0.023V64.929h0.024V64.882h0.024V64.811H755.2V64.763h0.024c0.007-.032.015-0.063,0.023-0.095h0.024V64.6H755.3V64.549h0.024c0.015-.047.031-0.095,0.047-0.142h0.024V64.336h0.024V64.288h0.023l0.024-.095h0.024V64.122h0.024V64.074h0.023V64.027h0.024V63.979h0.024l0.024-.119h0.023l0.024-.095h0.024V63.694H755.7V63.647h0.024c0.015-.047.031-0.095,0.047-0.142H755.8V63.433h0.023V63.386h0.024l0.024-.1h0.024V63.219h0.024a0.982,0.982,0,0,0,.071-0.19c-0.2-.086-0.4-0.207-0.594-0.309h-0.048V62.7l-0.095-.024V62.649H755.2V62.626h-0.048V62.6h-0.047V62.578h-0.048V62.554l-0.1-.024V62.507h-0.047V62.483h-0.048V62.459h-0.047V62.436h-0.048V62.412h-0.047a0.9,0.9,0,0,0-.238-0.119c0.03-.093,0-0.029.071-0.071V62.2h0.048l0.024-.048h0.047V62.127h0.048l0.023-.047,0.1-.024,0.024-.048,0.095-.024,0.024-.047,0.1-.024,0.024-.048,0.1-.024,0.024-.047h0.047V61.771h0.048c0.007-.016.015-0.032,0.023-0.047l0.1-.024,0.024-.047,0.1-.024,0.024-.047,0.1-.024,0.024-.047,0.095-.024c0.008-.016.016-0.032,0.023-0.047h0.048V61.414h0.048c0.007-.016.015-0.032,0.023-0.047l0.1-.024,0.024-.047H756.1V61.272h0.047l0.024-.047,0.1-.024,0.024-.047,0.1-.024,0.024-.047,0.1-.024c0.007-.016.015-0.032,0.023-0.047l0.1-.024,0.024-.047,0.1-.024,0.024-.047,0.1-.024,0.024-.047,0.095-.024,0.024-.047,0.1-.024c0.007-.016.015-0.032,0.023-0.047l0.1-.024,0.024-.048,0.1-.024,0.024-.047,0.095-.024,0.024-.048,0.1-.024c0.008-.016.016-0.032,0.023-0.047l0.1-.024c0.007-.016.015-0.032,0.023-0.048h0.048V60.274h0.047l0.024-.047,0.1-.024,0.024-.048,0.1-.024,0.024-.047,0.1-.024c0.008-.016.016-0.032,0.023-0.048l0.072-.024v4.18h-0.024A1.235,1.235,0,0,0,757.909,64V63.979l-0.142-.047V63.908l-0.1-.024V63.861l-0.1-.024V63.813l-0.1-.024V63.766h-0.048V63.742h-0.047V63.718h-0.048V63.694h-0.047V63.671h-0.048V63.647a1.216,1.216,0,0,0-.19-0.071V63.552c-0.048-.008-0.03.012-0.047,0.024h-0.024l-0.024.119h-0.024v0.047h-0.024v0.047h-0.023v0.047h-0.024v0.048H756.84v0.071h-0.024V64h-0.023l-0.024.095h-0.024v0.071h-0.024v0.047H756.7v0.047h-0.024v0.047H756.65l-0.024.119H756.6l-0.024.095h-0.024V64.6h-0.024v0.047h-0.023l-0.024.095H756.46v0.071h-0.024v0.047h-0.023L756.365,65h-0.024v0.071h-0.024v0.047h-0.023l-0.024.095h-0.024v0.071h-0.024v0.047H756.2v0.048h-0.024v0.047h-0.024l-0.024.119H756.1l-0.024.095h-0.024v0.071h-0.024v0.048h-0.023l-0.048.142h-0.024v0.071h-0.023v0.047H755.89l-0.024.095h-0.024v0.071h-0.024v0.047H755.8l-0.024.095h-0.024V66.4h-0.023v0.047H755.7l-0.024.1h-0.024v0.071h-0.024v0.048h-0.023l-0.048.142h-0.024v0.071H755.51v0.047h-0.024l-0.024.095h-0.024v0.071h-0.023v0.047h-0.024c-0.024.063-.048,0.127-0.071,0.19h-0.048a1.308,1.308,0,0,0-.238-0.238c-0.015-.024-0.031-0.048-0.047-0.071h-0.024V66.972l-0.071-.024V66.924l-0.071-.047V66.829l-0.048-.024-0.1-.119h-0.047l-0.024-.071-0.048-.024-0.095-.119-0.071-.024-0.119-.166-0.071-.048V66.212h-0.048c-0.023-.04-0.047-0.079-0.071-0.119l-0.095-.071-0.024-.047-0.071-.024V65.9l-0.143-.119c-0.007-.016-0.015-0.032-0.023-0.047H753.68l-0.024-.071-0.356-.332a0.428,0.428,0,0,0-.19-0.166v0.024h-0.024l-0.024.119h-0.023v0.048h-0.024V65.4h-0.024v0.047h-0.024c-0.008.032-.015,0.063-0.023,0.095H752.92v0.071H752.9v0.047h-0.024v0.047h-0.023l-0.048.143h-0.024v0.071h-0.023v0.047H752.73v0.047h-0.024c-0.016.047-.032,0.095-0.047,0.142h-0.024v0.071h-0.024v0.048h-0.024v0.047h-0.023l-0.048.142h-0.024v0.071h-0.024c-0.007.032-.015,0.063-0.023,0.095h-0.024l-0.024.095h-0.024v0.047H752.35v0.071h-0.024V66.9H752.3v0.048h-0.024c-0.015.047-.031,0.095-0.047,0.142h-0.024v0.071h-0.024v0.047H752.16v0.047h-0.024l-0.048.142h-0.023v0.071h-0.024v0.047h-0.024v0.047h-0.024c-0.016.048-.031,0.095-0.047,0.142h-0.024v0.071H751.9v0.047h-0.023v0.047h-0.024l-0.048.142h-0.024v0.071h-0.023v0.048h-0.024v0.047h-0.024c-0.016.047-.032,0.1-0.047,0.142h-0.024V68.4h-0.024v0.047h-0.024v0.047h-0.023l-0.048.142h-0.024v0.071h-0.023v0.047h-0.024V68.8h-0.024c-0.016.047-.032,0.095-0.047,0.142h-0.024v0.071h-0.024v0.047H751.3v0.047h-0.023l-0.048.142h-0.024v0.071h-0.024v0.047h-0.023l-0.024.1h-0.024l-0.024.095h-0.023v0.071h-0.024l-0.024.095H751a1.11,1.11,0,0,1-.142.309l-0.143-.119-0.047-.071h-0.048l-0.142-.166h-0.048l-0.142-.166h-0.048l-0.142-.166h-0.048l-0.142-.166h-0.048l-0.048-.071-0.1-.071V69.014h-0.047l-0.143-.166h-0.047l-0.143-.166c-0.287-.207-0.521-0.458-0.808-0.665l-0.142-.166h-0.048l-0.142-.166h-0.048L748,67.518h-0.048l-0.024-.047a0.575,0.575,0,0,0-.237-0.166v0.024a0.552,0.552,0,0,0-.1.142l-0.048.024v0.047l-0.071.047v0.047l-0.047.024v0.047l-0.072.048V67.8l-0.071.048V67.9l-0.071.047v0.048l-0.048.024v0.047l-0.047.024-0.024.071-0.071.047v0.047l-0.048.024v0.047l-0.071.048v0.047l-0.048.024v0.047l-0.047.024-0.024.071-0.071.047v0.047l-0.048.024v0.047L746.6,68.8v0.047l-0.071.047v0.048l-0.048.024v0.047l-0.071.047v0.047l-0.071.047V69.2l-0.048.024v0.047l-0.071.048v0.047l-0.048.024-0.047.095H746.1V67.566a0.309,0.309,0,0,0,.048-0.071h0.023V67.447l0.072-.047V67.352l0.071-.047V67.257l0.047-.024V67.186l0.048-.024,0.024-.071,0.071-.048V67l0.047-.024V66.924L746.6,66.9l0.024-.071,0.071-.047V66.734l0.047-.024V66.663l0.048-.024,0.024-.071,0.071-.048V66.473l0.048-.024V66.4L747,66.354V66.307l0.071-.047V66.212l0.048-.024V66.141l0.071-.048V66.046l0.047-.024V65.974l0.072-.047V65.879l0.071-.047V65.784l0.048-.024V65.713h0.023A0.2,0.2,0,0,0,747.5,65.618Zm9.622,6.531h-1.9v-4.18h0.023a1.481,1.481,0,0,0,.38.356l0.072-.238h0.024V68.017h0.023V67.969h0.024V67.9H755.8c0.008-.032.016-0.063,0.023-0.1h0.024V67.732h0.024V67.684h0.024V67.613h0.024V67.566h0.023V67.494h0.024V67.447h0.024V67.376h0.024c0.007-.032.015-0.063,0.023-0.095h0.024V67.209h0.024V67.162H756.1c0.008-.04.015-0.079,0.023-0.119h0.024V66.972h0.024V66.924H756.2V66.853h0.023V66.806h0.024V66.734h0.024l0.024-.095h0.023l0.024-.119h0.024V66.449h0.024V66.4h0.024V66.331h0.023V66.283h0.024V66.212h0.024l0.024-.119h0.023V66.046h0.024V65.974h0.024l0.024-.095h0.023V65.808h0.024V65.761h0.024V65.689H756.7V65.642h0.023V65.571h0.024l0.024-.119h0.024V65.4h0.023V65.333h0.024l0.024-.095h0.024V65.167h0.023V65.119h0.024V65.048h0.024V65h0.024V64.929h0.024V64.882h0.023l0.072-.237h0.023v7.5Zm-2.661,0h-1.9V67.376h0.023V67.328h0.024V67.257h0.024c0.016-.047.031-0.095,0.047-0.142h0.024V67.067h0.024V67.019h0.024V66.972h0.023V66.9H752.8V66.853h0.024V66.806h0.024c0.015-.048.031-0.095,0.047-0.142h0.024V66.592h0.024c0.015-.047.031-0.1,0.047-0.143h0.024l0.024-.119h0.023V66.283h0.024l0.143-.333a0.044,0.044,0,0,1,.024.024l1.211,1.188v4.987Zm-5.322,0h-1.9V68.872a0.378,0.378,0,0,0,.119-0.166l0.072-.047V68.611l0.071-.047V68.516l0.047-.024V68.444l0.048-.024,0.024-.071,0.071-.047V68.254l0.047-.024a0.57,0.57,0,0,1,.1-0.143l0.143,0.119c0.016,0.024.032,0.047,0.047,0.071h0.048l0.143,0.166h0.047l0.143,0.166h0.047l0.048,0.071,0.1,0.071v0.024h0.047l0.167,0.19h0.047L749,69.133h0.047l0.071,0.095h0.024v2.921Zm2.661,0h-1.9V69.917h0.023l0.143,0.119,0.047,0.071h0.048l0.142,0.166h0.048l0.142,0.166h0.048l0.143,0.166h0.047l0.024,0.048a0.574,0.574,0,0,0,.237.166c0.032-.087.064-0.174,0.1-0.261h0.024V70.511h0.024V70.463h0.024c0.008-.032.016-0.063,0.023-0.095h0.024V70.3h0.024V70.249h0.024V70.2h0.024c0.015-.047.031-0.095,0.047-0.143h0.024V69.988h0.024V69.941H751.4l0.024-.095h0.024l0.024-.1h0.023V69.679h0.024l0.048-.142h0.023V69.489h0.024V69.442h0.024V69.371h0.024c0.015-.047.031-0.1,0.047-0.143h0.024V69.181h0.024c0.008-.04.016-0.079,0.023-0.119H751.8v3.087Z" transform="translate(-746.094 -60)"/>
</svg>
